<svg xmlns="http://www.w3.org/2000/svg" xmlns:xlink="http://www.w3.org/1999/xlink" width="1500" zoomAndPan="magnify" viewBox="0 0 1125 326.250004" height="435" preserveAspectRatio="xMidYMid meet" version="1.0"><defs><g/></defs><path fill="#5271ff" d="M 13.660156 86.28125 L 91.035156 16.8125 C 97.699219 10.832031 108.148438 12.332031 112.859375 19.945312 L 165.890625 105.691406 C 174.675781 119.894531 156.246094 135.128906 143.945312 123.832031 L 102.742188 85.96875 C 98.480469 82.050781 92.28125 81.074219 87.023438 83.492188 L 29.261719 110.03125 C 14.292969 116.910156 1.402344 97.289062 13.660156 86.28125 " fill-opacity="1" fill-rule="nonzero"/><path fill="#333333" d="M 232.355469 141.574219 L 149.34375 216.101562 C 143.132812 221.675781 133.390625 220.277344 129 213.179688 L 77.121094 129.296875 C 69.113281 116.347656 85.472656 102.199219 97.132812 111.988281 L 139.042969 147.179688 C 143.011719 150.511719 148.542969 151.257812 153.253906 149.09375 L 217.8125 119.429688 C 231.769531 113.019531 243.785156 131.3125 232.355469 141.574219 " fill-opacity="1" fill-rule="nonzero"/><g fill="#333333" fill-opacity="1"><g transform="translate(243.899261, 170.865811)"><g><path d="M 101.367188 -115.996094 L 82.328125 -115.996094 C 78.273438 -115.996094 76.507812 -115.46875 74.21875 -110.707031 L 54.296875 -72.808594 L 33.671875 -110.707031 C 31.203125 -115.46875 29.441406 -115.996094 25.386719 -115.996094 L 5.113281 -115.996094 C 1.761719 -115.996094 1.410156 -113 2.292969 -111.0625 L 40.015625 -43.542969 L 40.015625 -5.113281 C 40.015625 -1.058594 41.78125 0 45.128906 0 L 62.757812 0 C 65.929688 0 67.871094 -1.058594 67.871094 -5.113281 L 67.871094 -43.542969 L 104.1875 -111.0625 C 105.066406 -113 104.714844 -115.996094 101.367188 -115.996094 Z M 101.367188 -115.996094 "/></g></g></g><g fill="#333333" fill-opacity="1"><g transform="translate(350.367982, 170.865811)"><g><path d="M 112.824219 -4.9375 L 73.863281 -110.53125 C 72.277344 -114.234375 70.515625 -115.996094 66.636719 -115.996094 L 49.714844 -115.996094 C 45.835938 -115.996094 43.894531 -114.234375 42.484375 -110.53125 L 3.347656 -4.9375 C 2.46875 -2.820312 2.46875 0 6.347656 0 L 24.855469 0 C 28.734375 0 30.144531 -1.058594 31.554688 -5.289062 L 36.492188 -19.214844 L 79.683594 -19.214844 L 84.617188 -5.289062 C 86.027344 -1.058594 87.4375 0 91.316406 0 L 109.828125 0 C 113.707031 0 113.707031 -2.820312 112.824219 -4.9375 Z M 58.175781 -82.855469 L 71.398438 -43.894531 L 44.953125 -43.894531 Z M 58.175781 -82.855469 "/></g></g></g><g fill="#5271ff" fill-opacity="1"><g transform="translate(465.83561, 170.865811)"><g><path d="M 91.492188 -24.679688 L 40.722656 -24.679688 L 40.722656 -110.886719 C 40.722656 -114.941406 38.785156 -115.996094 35.609375 -115.996094 L 18.15625 -115.996094 C 14.984375 -115.996094 13.046875 -114.941406 13.046875 -110.886719 L 13.046875 -5.113281 C 13.046875 -1.9375 14.101562 0 18.15625 0 L 91.492188 0 C 95.546875 0 96.605469 -1.9375 96.605469 -5.113281 L 96.605469 -19.566406 C 96.605469 -22.742188 95.546875 -24.679688 91.492188 -24.679688 Z M 91.492188 -24.679688 "/></g></g></g><g fill="#5271ff" fill-opacity="1"><g transform="translate(568.426336, 170.865811)"><g><path d="M 91.492188 -24.679688 L 40.722656 -24.679688 L 40.722656 -110.886719 C 40.722656 -114.941406 38.785156 -115.996094 35.609375 -115.996094 L 18.15625 -115.996094 C 14.984375 -115.996094 13.046875 -114.941406 13.046875 -110.886719 L 13.046875 -5.113281 C 13.046875 -1.9375 14.101562 0 18.15625 0 L 91.492188 0 C 95.546875 0 96.605469 -1.9375 96.605469 -5.113281 L 96.605469 -19.566406 C 96.605469 -22.742188 95.546875 -24.679688 91.492188 -24.679688 Z M 91.492188 -24.679688 "/></g></g></g><g fill="#333333" fill-opacity="1"><g transform="translate(671.032032, 170.865811)"><g><path d="M 112.824219 -4.9375 L 73.863281 -110.53125 C 72.277344 -114.234375 70.515625 -115.996094 66.636719 -115.996094 L 49.714844 -115.996094 C 45.835938 -115.996094 43.894531 -114.234375 42.484375 -110.53125 L 3.347656 -4.9375 C 2.46875 -2.820312 2.46875 0 6.347656 0 L 24.855469 0 C 28.734375 0 30.144531 -1.058594 31.554688 -5.289062 L 36.492188 -19.214844 L 79.683594 -19.214844 L 84.617188 -5.289062 C 86.027344 -1.058594 87.4375 0 91.316406 0 L 109.828125 0 C 113.707031 0 113.707031 -2.820312 112.824219 -4.9375 Z M 58.175781 -82.855469 L 71.398438 -43.894531 L 44.953125 -43.894531 Z M 58.175781 -82.855469 "/></g></g></g><g fill="#333333" fill-opacity="1"><g transform="translate(786.490661, 170.865811)"><g><path d="M 57.644531 -115.996094 L 18.15625 -115.996094 C 14.101562 -115.996094 13.046875 -114.058594 13.046875 -110.886719 L 13.046875 -5.113281 C 13.046875 -1.9375 14.101562 0 18.15625 0 L 57.644531 0 C 78.625 0 105.066406 -11.988281 105.066406 -39.664062 L 105.066406 -76.332031 C 105.066406 -103.832031 78.625 -115.996094 57.644531 -115.996094 Z M 77.390625 -73.863281 L 77.390625 -42.132812 C 77.390625 -30.851562 69.28125 -24.503906 57.644531 -24.503906 L 40.722656 -24.503906 L 40.722656 -91.492188 L 57.644531 -91.492188 C 69.28125 -91.492188 77.390625 -84.96875 77.390625 -73.863281 Z M 77.390625 -73.863281 "/></g></g></g><g fill="#333333" fill-opacity="1"><g transform="translate(901.06792, 170.865811)"><g><path d="M 97.132812 -24.679688 L 40.898438 -24.679688 L 40.898438 -47.949219 L 88.144531 -47.949219 C 92.199219 -47.949219 93.257812 -49.890625 93.257812 -53.0625 L 93.257812 -66.8125 C 93.257812 -69.984375 92.199219 -71.925781 88.144531 -71.925781 L 40.898438 -71.925781 L 40.898438 -91.140625 L 94.136719 -91.140625 C 98.191406 -91.140625 99.25 -93.078125 99.25 -96.253906 L 99.25 -110.886719 C 99.25 -114.058594 98.191406 -115.996094 94.136719 -115.996094 L 18.15625 -115.996094 C 14.101562 -115.996094 13.046875 -114.058594 13.046875 -110.886719 L 13.046875 -5.113281 C 13.046875 -1.9375 14.101562 0 18.15625 0 L 97.132812 0 C 101.1875 0 102.246094 -1.9375 102.246094 -5.113281 L 102.246094 -19.566406 C 102.246094 -22.742188 101.1875 -24.679688 97.132812 -24.679688 Z M 97.132812 -24.679688 "/></g></g></g><g fill="#333333" fill-opacity="1"><g transform="translate(1011.590893, 170.865811)"><g><path d="M 105.597656 -115.996094 L 86.910156 -115.996094 C 82.148438 -115.996094 80.917969 -114.585938 79.503906 -110.355469 L 55.707031 -37.371094 L 31.730469 -110.355469 C 30.320312 -114.585938 29.085938 -115.996094 24.503906 -115.996094 L 4.9375 -115.996094 C 1.585938 -115.996094 0.882812 -113.175781 1.761719 -110.886719 L 39.664062 -5.289062 C 41.78125 -0.707031 43.015625 0 46.890625 0 L 63.816406 0 C 67.695312 0 68.929688 -0.707031 71.042969 -5.289062 L 108.769531 -110.886719 C 109.652344 -113.175781 108.945312 -115.996094 105.597656 -115.996094 Z M 105.597656 -115.996094 "/></g></g></g><g fill="#5271ff" fill-opacity="1"><g transform="translate(281.897917, 287.643902)"><g><path d="M 13.195312 -54.339844 C 13.195312 -47.351562 8.539062 -42.695312 1.550781 -42.695312 L 1.550781 -38.039062 C 6.132812 -38.039062 10.089844 -39.046875 13.195312 -40.832031 L 13.195312 0 L 20.960938 0 L 20.960938 -54.339844 Z M 13.195312 -54.339844 "/></g></g></g><g fill="#333333" fill-opacity="1"><g transform="translate(306.744113, 287.643902)"><g/></g></g><g fill="#333333" fill-opacity="1"><g transform="translate(318.386539, 287.643902)"><g><path d="M 41.140625 0 L 48.90625 0 C 48.90625 11.179688 41.453125 18.628906 30.273438 18.628906 C 19.097656 18.628906 11.644531 11.179688 11.644531 0 C 11.644531 -11.179688 19.097656 -18.628906 30.273438 -18.628906 L 30.273438 -23.289062 C 14.4375 -23.289062 3.882812 -13.972656 3.882812 0 C 3.882812 13.972656 14.4375 23.289062 30.273438 23.289062 C 46.109375 23.289062 56.667969 13.972656 56.667969 0 L 66.757812 0 L 66.757812 -4.65625 L 41.140625 -4.65625 Z M 41.140625 0 "/></g></g></g><g fill="#333333" fill-opacity="1"><g transform="translate(385.136459, 287.643902)"><g><path d="M 7.761719 -54.339844 L 7.761719 -12.421875 C 7.761719 -7.761719 4.65625 -4.65625 0 -4.65625 L -0.777344 -4.65625 C -1.242188 -4.65625 -1.550781 -4.347656 -1.550781 -3.882812 L -1.550781 -0.777344 C -1.550781 -0.308594 -1.242188 0 -0.777344 0 L 0 0 C 9.316406 0 15.527344 -4.96875 15.527344 -12.421875 L 15.527344 -54.339844 Z M 7.761719 -54.339844 "/></g></g></g><g fill="#333333" fill-opacity="1"><g transform="translate(404.540503, 287.643902)"><g><path d="M 6.210938 -54.339844 L 6.210938 0 L 13.972656 0 L 13.972656 -54.339844 Z M 8.152344 10.089844 C 8.152344 7.761719 9.394531 6.210938 11.257812 6.210938 C 13.117188 6.210938 14.359375 7.761719 14.359375 10.089844 L 19.019531 10.089844 C 19.019531 6.367188 15.914062 3.882812 11.257812 3.882812 C 6.597656 3.882812 3.492188 6.367188 3.492188 10.089844 C 3.492188 11.644531 4.035156 12.964844 4.96875 13.972656 L 1.164062 13.972656 L 1.164062 16.300781 L 19.019531 16.300781 L 19.019531 13.972656 L 11.257812 13.972656 C 9.394531 13.972656 8.152344 12.421875 8.152344 10.089844 Z M 8.152344 10.089844 "/></g></g></g><g fill="#333333" fill-opacity="1"><g transform="translate(424.720718, 287.643902)"><g/></g></g><g fill="#5271ff" fill-opacity="1"><g transform="translate(436.365097, 287.643902)"><g><path d="M 22.511719 -54.339844 C 11.332031 -54.339844 3.882812 -43.472656 3.882812 -27.167969 C 3.882812 -10.867188 11.332031 0 22.511719 0 C 33.691406 0 41.140625 -10.867188 41.140625 -27.167969 C 41.140625 -43.472656 33.691406 -54.339844 22.511719 -54.339844 Z M 22.511719 -49.679688 C 29.03125 -49.679688 33.378906 -40.675781 33.378906 -27.167969 C 33.378906 -13.664062 29.03125 -4.65625 22.511719 -4.65625 C 15.992188 -4.65625 11.644531 -13.664062 11.644531 -27.167969 C 11.644531 -40.675781 15.992188 -49.679688 22.511719 -49.679688 Z M 22.511719 -49.679688 "/></g></g></g><g fill="#333333" fill-opacity="1"><g transform="translate(481.397739, 287.643902)"><g/></g></g><g fill="#333333" fill-opacity="1"><g transform="translate(493.040165, 287.643902)"><g><path d="M 26.394531 -31.050781 C 29.652344 -31.050781 31.828125 -33.222656 31.828125 -36.484375 C 31.828125 -39.746094 29.652344 -41.917969 26.394531 -41.917969 C 23.132812 -41.917969 20.960938 -39.746094 20.960938 -36.484375 C 20.960938 -33.222656 23.132812 -31.050781 26.394531 -31.050781 Z M 66.757812 -4.65625 C 60.703125 -4.65625 56.667969 -8.695312 56.667969 -14.75 L 56.667969 -38.8125 L 48.90625 -38.8125 L 48.90625 0 C 48.90625 11.179688 41.453125 18.628906 30.273438 18.628906 C 19.097656 18.628906 11.644531 11.179688 11.644531 0 C 11.644531 -11.179688 19.097656 -18.628906 30.273438 -18.628906 L 30.273438 -23.289062 C 14.4375 -23.289062 3.882812 -13.972656 3.882812 0 C 3.882812 13.972656 14.4375 23.289062 30.273438 23.289062 C 46.109375 23.289062 56.667969 13.972656 56.667969 0 L 56.667969 -2.171875 C 59.460938 -0.777344 62.878906 0 66.757812 0 L 67.535156 0 L 67.535156 -4.65625 Z M 66.757812 -4.65625 "/></g></g></g><g fill="#333333" fill-opacity="1"><g transform="translate(560.56624, 287.643902)"><g><path d="M 26.394531 -38.8125 C 15.214844 -38.8125 7.761719 -31.050781 7.761719 -19.40625 L 7.761719 -12.421875 C 7.761719 -7.761719 4.65625 -4.65625 0 -4.65625 L -0.777344 -4.65625 C -1.242188 -4.65625 -1.550781 -4.347656 -1.550781 -3.882812 L -1.550781 -0.777344 C -1.550781 -0.308594 -1.242188 0 -0.777344 0 L 0 0 C 5.898438 0 10.480469 -1.941406 13.117188 -5.277344 C 16.535156 -1.941406 21.347656 0 27.167969 0 C 37.882812 0 45.023438 -7.761719 45.023438 -19.40625 C 45.023438 -31.050781 37.570312 -38.8125 26.394531 -38.8125 Z M 27.167969 -4.65625 C 20.183594 -4.65625 15.527344 -10.558594 15.527344 -19.40625 C 15.527344 -28.257812 19.871094 -34.15625 26.394531 -34.15625 C 32.914062 -34.15625 37.261719 -28.257812 37.261719 -19.40625 C 37.261719 -10.558594 33.222656 -4.65625 27.167969 -4.65625 Z M 27.167969 -4.65625 "/></g></g></g><g fill="#333333" fill-opacity="1"><g transform="translate(609.464444, 287.643902)"><g/></g></g><g fill="#333333" fill-opacity="1"><g transform="translate(621.10687, 287.643902)"><g><path d="M 76.851562 -4.65625 C 72.191406 -4.65625 69.089844 -7.761719 69.089844 -12.421875 L 69.089844 -19.40625 C 69.089844 -31.050781 61.636719 -38.8125 50.457031 -38.8125 C 39.28125 -38.8125 31.828125 -31.050781 31.828125 -19.40625 L 31.828125 0.777344 C 31.828125 6.832031 27.789062 10.867188 21.734375 10.867188 C 15.679688 10.867188 11.644531 6.832031 11.644531 0.777344 L 3.882812 0.777344 C 3.882812 9.625 11.023438 15.527344 21.734375 15.527344 C 32.449219 15.527344 39.589844 9.625 39.589844 0.777344 L 39.589844 -3.339844 C 42.695312 -1.164062 46.652344 0 51.234375 0 C 56.433594 0 60.78125 -1.863281 63.886719 -5.046875 C 66.605469 -1.863281 71.105469 0 76.851562 0 L 77.628906 0 L 77.628906 -4.65625 Z M 51.234375 -4.65625 C 44.246094 -4.65625 39.589844 -10.558594 39.589844 -19.40625 C 39.589844 -28.257812 43.9375 -34.15625 50.457031 -34.15625 C 56.976562 -34.15625 61.324219 -28.257812 61.324219 -19.40625 C 61.324219 -10.558594 57.289062 -4.65625 51.234375 -4.65625 Z M 51.234375 -4.65625 "/></g></g></g><g fill="#333333" fill-opacity="1"><g transform="translate(698.723061, 287.643902)"><g><path d="M 23.289062 -4.65625 C 18.628906 -4.65625 15.527344 -7.761719 15.527344 -12.421875 L 15.527344 -54.339844 L 7.761719 -54.339844 L 7.761719 -12.421875 C 7.761719 -7.761719 4.65625 -4.65625 0 -4.65625 L -0.777344 -4.65625 C -1.242188 -4.65625 -1.550781 -4.347656 -1.550781 -3.882812 L -1.550781 -0.777344 C -1.550781 -0.308594 -1.242188 0 -0.777344 0 L 0 0 C 4.890625 0 8.925781 -1.398438 11.644531 -3.726562 C 14.359375 -1.398438 18.398438 0 23.289062 0 L 24.0625 0 L 24.0625 -4.65625 Z M 23.289062 -4.65625 "/></g></g></g><g fill="#333333" fill-opacity="1"><g transform="translate(722.784085, 287.643902)"><g><path d="M 40.210938 -4.65625 C 43.394531 -7.917969 45.023438 -12.886719 45.023438 -19.40625 C 45.023438 -32.058594 38.503906 -38.8125 26.394531 -38.8125 L 7.761719 -38.8125 L 7.761719 -19.40625 C 7.761719 -12.886719 9.546875 -7.917969 13.042969 -4.65625 L -0.777344 -4.65625 C -1.320312 -4.65625 -1.550781 -4.425781 -1.550781 -3.882812 L -1.550781 -0.777344 C -1.550781 -0.234375 -1.320312 0 -0.777344 0 L 52.785156 0 L 52.785156 -4.65625 Z M 15.527344 -34.15625 L 26.394531 -34.15625 C 33.457031 -34.15625 37.261719 -29.03125 37.261719 -19.40625 C 37.261719 -9.78125 33.769531 -4.65625 27.167969 -4.65625 C 19.5625 -4.65625 15.527344 -9.78125 15.527344 -19.40625 Z M 15.527344 -34.15625 "/></g></g></g><g fill="#333333" fill-opacity="1"><g transform="translate(775.563098, 287.643902)"><g><path d="M 11.644531 -46.578125 C 14.90625 -46.578125 17.078125 -48.75 17.078125 -52.011719 C 17.078125 -55.269531 14.90625 -57.445312 11.644531 -57.445312 C 8.382812 -57.445312 6.210938 -55.269531 6.210938 -52.011719 C 6.210938 -48.75 8.382812 -46.578125 11.644531 -46.578125 Z M 11.644531 -33.378906 C 14.90625 -33.378906 17.078125 -35.554688 17.078125 -38.8125 C 17.078125 -42.074219 14.90625 -44.246094 11.644531 -44.246094 C 8.382812 -44.246094 6.210938 -42.074219 6.210938 -38.8125 C 6.210938 -35.554688 8.382812 -33.378906 11.644531 -33.378906 Z M 23.289062 -4.65625 C 18.628906 -4.65625 15.527344 -7.761719 15.527344 -12.421875 L 15.527344 -25.617188 L 7.761719 -25.617188 L 7.761719 -12.421875 C 7.761719 -7.761719 4.65625 -4.65625 0 -4.65625 L -0.777344 -4.65625 C -1.242188 -4.65625 -1.550781 -4.347656 -1.550781 -3.882812 L -1.550781 -0.777344 C -1.550781 -0.308594 -1.242188 0 -0.777344 0 L 0 0 C 4.890625 0 8.925781 -1.398438 11.644531 -3.726562 C 14.359375 -1.398438 18.398438 0 23.289062 0 L 24.0625 0 L 24.0625 -4.65625 Z M 23.289062 -4.65625 "/></g></g></g><g fill="#333333" fill-opacity="1"><g transform="translate(799.624122, 287.643902)"><g><path d="M 11.644531 -46.578125 C 14.90625 -46.578125 17.078125 -48.75 17.078125 -52.011719 C 17.078125 -55.269531 14.90625 -57.445312 11.644531 -57.445312 C 8.382812 -57.445312 6.210938 -55.269531 6.210938 -52.011719 C 6.210938 -48.75 8.382812 -46.578125 11.644531 -46.578125 Z M 23.289062 -4.65625 C 18.628906 -4.65625 15.527344 -7.761719 15.527344 -12.421875 L 15.527344 -38.8125 L 7.761719 -38.8125 L 7.761719 -12.421875 C 7.761719 -7.761719 4.65625 -4.65625 0 -4.65625 L -0.777344 -4.65625 C -1.242188 -4.65625 -1.550781 -4.347656 -1.550781 -3.882812 L -1.550781 -0.777344 C -1.550781 -0.308594 -1.242188 0 -0.777344 0 L 0 0 C 4.890625 0 8.925781 -1.398438 11.644531 -3.726562 C 14.359375 -1.398438 18.398438 0 23.289062 0 L 24.0625 0 L 24.0625 -4.65625 Z M 23.289062 -4.65625 "/></g></g></g><g fill="#333333" fill-opacity="1"><g transform="translate(823.685146, 287.643902)"><g><path d="M 7.761719 -54.339844 L 7.761719 -12.421875 C 7.761719 -7.761719 4.65625 -4.65625 0 -4.65625 L -0.777344 -4.65625 C -1.242188 -4.65625 -1.550781 -4.347656 -1.550781 -3.882812 L -1.550781 -0.777344 C -1.550781 -0.308594 -1.242188 0 -0.777344 0 L 0 0 C 9.316406 0 15.527344 -4.96875 15.527344 -12.421875 L 15.527344 -54.339844 Z M 7.761719 -54.339844 "/></g></g></g></svg>