<svg xmlns="http://www.w3.org/2000/svg" xmlns:xlink="http://www.w3.org/1999/xlink" width="500" zoomAndPan="magnify" viewBox="0 0 375 374.999991" height="500" preserveAspectRatio="xMidYMid meet" version="1.0"><defs><g/><clipPath id="bd24454496"><path d="M 70 178 L 302 178 L 302 352.925781 L 70 352.925781 Z M 70 178 " clip-rule="nonzero"/></clipPath></defs><path fill="#ffffff" d="M 370.917969 161.589844 C 370.0625 154.917969 368.691406 148.09375 365.242188 142.3125 C 361.796875 136.527344 355.75 131.929688 349.011719 131.664062 C 349.632812 130.28125 350.089844 128.84375 350.382812 127.351562 C 350.671875 125.863281 350.789062 124.359375 350.730469 122.84375 C 350.675781 121.328125 350.445312 119.839844 350.046875 118.375 C 349.644531 116.910156 349.082031 115.511719 348.359375 114.179688 C 346.808594 111.375 344.230469 108.824219 341.105469 108.417969 C 342.277344 103.738281 342.652344 98.996094 342.234375 94.195312 C 341.914062 90.988281 341.257812 87.851562 340.269531 84.78125 C 339.28125 81.714844 337.980469 78.785156 336.367188 75.992188 C 334.753906 73.203125 332.867188 70.613281 330.703125 68.222656 C 328.542969 65.835938 326.152344 63.699219 323.53125 61.820312 C 321.386719 60.300781 319.140625 58.960938 316.785156 57.792969 C 313.03125 55.921875 309.117188 54.488281 305.042969 53.5 C 300.96875 52.511719 296.832031 51.988281 292.640625 51.933594 C 292.804688 50.242188 292.847656 48.546875 292.777344 46.847656 C 292.703125 45.148438 292.511719 43.464844 292.203125 41.792969 C 291.894531 40.121094 291.46875 38.476562 290.929688 36.863281 C 290.394531 35.253906 289.746094 33.683594 288.988281 32.164062 C 288.230469 30.640625 287.371094 29.179688 286.40625 27.777344 C 285.445312 26.375 284.390625 25.046875 283.242188 23.792969 C 282.09375 22.539062 280.867188 21.367188 279.554688 20.285156 C 278.242188 19.203125 276.863281 18.21875 275.414062 17.328125 C 272.617188 15.65625 269.6875 14.261719 266.628906 13.144531 C 261.710938 11.140625 256.601562 9.949219 251.300781 9.578125 C 243.203125 9.207031 235.1875 11.707031 227.972656 15.414062 C 223.707031 17.640625 219.511719 20.390625 216.847656 24.3125 L 214.824219 24.394531 C 213.238281 21.660156 211.332031 19.171875 209.097656 16.933594 C 206.867188 14.695312 204.386719 12.78125 201.65625 11.1875 C 199.410156 9.914062 197.050781 8.898438 194.582031 8.144531 C 192.109375 7.390625 189.589844 6.914062 187.011719 6.71875 C 184.4375 6.523438 181.871094 6.609375 179.316406 6.980469 C 176.757812 7.351562 174.273438 8 171.859375 8.917969 C 168.984375 10.066406 166.316406 11.585938 163.863281 13.476562 C 161.40625 15.367188 159.257812 17.554688 157.410156 20.042969 L 155.058594 20.003906 C 152.335938 16.824219 147.792969 15.75 143.570312 15.316406 C 133.796875 14.308594 123.550781 15.613281 115.039062 20.507812 C 108.363281 24.3125 102.953125 30.476562 100.480469 37.636719 L 98.035156 38.59375 C 94.453125 36.761719 90.226562 36.445312 86.171875 36.675781 C 70.597656 37.554688 55.40625 46.582031 48.191406 60.46875 C 46.945312 62.925781 45.957031 65.480469 45.230469 68.136719 C 44.5 70.792969 44.046875 73.492188 43.863281 76.242188 C 43.683594 78.988281 43.78125 81.726562 44.152344 84.457031 C 44.527344 87.183594 45.171875 89.847656 46.082031 92.445312 C 39.261719 92.53125 32.625 95.46875 27.546875 100 C 25.011719 102.339844 22.8125 104.960938 20.949219 107.863281 C 19.085938 110.761719 17.617188 113.851562 16.542969 117.128906 C 15.058594 121.339844 14.191406 125.820312 14.644531 130.253906 C 15.0625 133.890625 16.164062 137.308594 17.949219 140.503906 C 11.089844 145.179688 5.34375 155.386719 5.441406 163.601562 C 5.539062 171.996094 9.148438 180.070312 14.265625 186.714844 C 16.8125 190.1875 19.957031 192.984375 23.703125 195.109375 L 23.933594 195.753906 C 20.878906 201.894531 20.6875 211.035156 21.859375 217.769531 C 23.066406 224.671875 26.054688 231.570312 31.585938 235.878906 C 34.960938 238.507812 39.070312 240.015625 43.191406 241.164062 C 47.773438 242.441406 52.550781 243.320312 57.28125 242.855469 C 62.011719 242.386719 66.742188 240.453125 69.886719 236.855469 C 71.851562 241.75 75.980469 245.570312 80.683594 247.980469 C 85.382812 250.390625 90.664062 251.417969 95.90625 251.96875 C 100.726562 252.464844 105.71875 252.539062 110.292969 250.953125 C 114.511719 249.46875 118.359375 246.4375 119.96875 242.3125 L 121.140625 242.5 C 125.976562 247.691406 131.640625 251.71875 138.136719 254.578125 C 152.457031 260.835938 173.5 258.351562 184.4375 251.464844 L 186.003906 251.574219 C 190.042969 256.359375 195.324219 259.5625 205.554688 261.214844 C 209.558594 261.9375 213.589844 262.207031 217.648438 262.015625 C 231.042969 261.179688 244.621094 256.269531 253.660156 246.347656 L 252.457031 246.296875 L 253.578125 245.730469 C 259.289062 248.042969 265.222656 249.03125 271.375 248.699219 C 275.015625 248.46875 278.589844 247.84375 282.097656 246.820312 C 284.722656 246.152344 287.195312 245.113281 289.511719 243.699219 C 291.519531 242.402344 294.125 240.734375 295.6875 238.902344 C 296.785156 237.625 297.792969 236.277344 298.707031 234.863281 L 301.570312 234.914062 C 302.480469 235.449219 303.421875 235.925781 304.394531 236.34375 C 307.09375 237.589844 309.890625 238.550781 312.789062 239.230469 C 318.105469 240.382812 323.453125 240.554688 328.835938 239.746094 C 338.472656 238.207031 346.839844 231.355469 351.167969 222.625 C 355.410156 214.078125 355.953125 203.953125 353.601562 194.699219 C 354.789062 194.0625 355.960938 193.394531 357.101562 192.707031 C 361.476562 190.050781 365.828125 186.980469 368.453125 182.582031 C 372.101562 176.40625 371.796875 168.730469 370.917969 161.589844 Z M 340.304688 111.332031 C 340.304688 111.332031 340.304688 111.273438 340.304688 111.242188 Z M 293.257812 53.246094 L 292.558594 52.941406 C 292.597656 52.632812 292.632812 52.3125 292.664062 51.992188 Z M 19.714844 143.453125 L 19.433594 145.21875 L 18.742188 141.902344 C 19.0625 142.421875 19.382812 142.941406 19.714844 143.453125 Z M 19.714844 143.453125 " fill-opacity="1" fill-rule="nonzero"/><path fill="#ffffff" d="M 353.570312 194.6875 C 354.757812 194.046875 355.929688 193.378906 357.070312 192.691406 C 361.445312 190.035156 365.800781 186.964844 368.425781 182.570312 C 372.132812 176.398438 371.796875 168.703125 370.894531 161.582031 C 370.042969 154.910156 368.667969 148.089844 365.222656 142.304688 C 361.773438 136.519531 355.730469 131.921875 348.988281 131.65625 C 349.613281 130.273438 350.066406 128.835938 350.359375 127.347656 C 350.648438 125.855469 350.765625 124.351562 350.710938 122.835938 C 350.652344 121.320312 350.425781 119.832031 350.023438 118.367188 C 349.621094 116.902344 349.058594 115.503906 348.335938 114.171875 C 346.785156 111.367188 344.207031 108.816406 341.085938 108.410156 C 342.253906 103.730469 342.632812 98.992188 342.210938 94.1875 C 341.890625 90.980469 341.238281 87.84375 340.25 84.777344 C 339.261719 81.710938 337.964844 78.785156 336.355469 75.992188 C 334.742188 73.203125 332.859375 70.613281 330.695312 68.222656 C 328.535156 65.835938 326.148438 63.699219 323.53125 61.820312 C 321.386719 60.300781 319.140625 58.960938 316.785156 57.792969 C 313.03125 55.921875 309.117188 54.488281 305.042969 53.5 C 300.96875 52.511719 296.832031 51.988281 292.640625 51.933594 C 292.804688 50.242188 292.847656 48.546875 292.777344 46.847656 C 292.703125 45.148438 292.511719 43.464844 292.203125 41.792969 C 291.894531 40.121094 291.46875 38.476562 290.929688 36.863281 C 290.394531 35.253906 289.746094 33.683594 288.988281 32.164062 C 288.230469 30.640625 287.371094 29.179688 286.40625 27.777344 C 285.445312 26.375 284.390625 25.046875 283.242188 23.792969 C 282.09375 22.539062 280.867188 21.367188 279.554688 20.285156 C 278.242188 19.203125 276.863281 18.21875 275.414062 17.328125 C 272.617188 15.65625 269.6875 14.261719 266.628906 13.144531 C 261.710938 11.140625 256.601562 9.949219 251.300781 9.578125 C 244.507812 9.304688 237.753906 10.996094 231.507812 13.753906 C 227.800781 85.175781 195.671875 204.816406 20.175781 192.792969 C 21.277344 193.671875 22.453125 194.441406 23.699219 195.101562 L 23.925781 195.746094 C 20.871094 201.886719 20.679688 211.027344 21.851562 217.761719 C 23.058594 224.664062 26.046875 231.5625 31.578125 235.871094 C 34.953125 238.503906 39.0625 240.007812 43.183594 241.15625 C 47.765625 242.433594 52.542969 243.316406 57.273438 242.847656 C 62.003906 242.378906 66.734375 240.445312 69.878906 236.847656 C 71.84375 241.742188 75.976562 245.5625 80.675781 247.972656 C 85.378906 250.382812 90.65625 251.414062 95.898438 251.960938 C 100.71875 252.457031 105.710938 252.53125 110.285156 250.945312 C 114.503906 249.460938 118.351562 246.429688 119.960938 242.304688 L 121.132812 242.492188 C 125.96875 247.683594 131.632812 251.710938 138.128906 254.570312 C 152.449219 260.828125 173.492188 258.34375 184.429688 251.457031 L 185.996094 251.566406 C 190.035156 256.351562 195.316406 259.554688 205.546875 261.207031 C 209.550781 261.933594 213.582031 262.199219 217.644531 262.007812 C 231.035156 261.171875 244.613281 256.261719 253.652344 246.339844 L 252.449219 246.289062 L 253.570312 245.726562 C 259.28125 248.035156 265.214844 249.023438 271.367188 248.691406 C 275.011719 248.460938 278.585938 247.835938 282.089844 246.816406 C 284.71875 246.144531 287.1875 245.105469 289.503906 243.691406 C 291.511719 242.394531 294.117188 240.726562 295.679688 238.894531 C 296.777344 237.617188 297.785156 236.269531 298.699219 234.855469 L 301.5625 234.90625 C 302.472656 235.441406 303.414062 235.917969 304.386719 236.335938 C 307.085938 237.582031 309.886719 238.542969 312.78125 239.222656 C 318.097656 240.375 323.445312 240.546875 328.828125 239.742188 C 338.46875 238.199219 346.832031 231.347656 351.160156 222.617188 C 355.382812 214.070312 355.921875 203.945312 353.570312 194.6875 Z M 292.558594 52.941406 C 292.597656 52.632812 292.632812 52.3125 292.664062 51.992188 L 293.257812 53.246094 Z M 340.285156 111.332031 C 340.285156 111.332031 340.285156 111.273438 340.285156 111.242188 Z M 340.285156 111.332031 " fill-opacity="1" fill-rule="nonzero"/><path fill="#d9d9d9" d="M 53.015625 104.21875 C 52.429688 103.6875 51.785156 103.019531 51.207031 102.460938 C 51.050781 102.3125 50.769531 102.011719 50.636719 101.847656 C 50.242188 101.394531 49.382812 100.320312 49.011719 99.890625 C 48.566406 99.273438 47.753906 98.074219 47.316406 97.433594 C 40.6875 86.660156 40.011719 72.578125 45.195312 61.039062 C 53.023438 43.503906 73.699219 32.574219 92.527344 36.199219 C 94.777344 36.6875 96.839844 37.609375 98.703125 38.964844 C 96.660156 38.128906 94.53125 37.664062 92.324219 37.578125 C 77.496094 37.355469 62.488281 44.710938 53.65625 56.464844 C 47.902344 63.984375 45.386719 73.566406 45.800781 82.996094 C 45.929688 84.480469 46.070312 86.289062 46.34375 87.75 C 46.414062 88.28125 46.511719 88.808594 46.640625 89.328125 C 46.921875 90.8125 47.441406 92.5625 47.871094 94 C 48.050781 94.445312 48.554688 95.832031 48.722656 96.285156 C 49.050781 97.144531 49.6875 98.421875 50.050781 99.25 C 50.332031 99.761719 50.964844 100.890625 51.246094 101.410156 C 51.777344 102.375 52.429688 103.261719 53.015625 104.226562 Z M 53.015625 104.21875 " fill-opacity="1" fill-rule="nonzero"/><path fill="#d9d9d9" d="M 99.613281 51.570312 C 99.09375 50.140625 98.710938 48.667969 98.46875 47.164062 C 98.226562 45.660156 98.128906 44.144531 98.175781 42.621094 C 98.222656 41.097656 98.414062 39.589844 98.75 38.101562 C 99.082031 36.613281 99.554688 35.171875 100.164062 33.773438 C 104.546875 22.972656 115.28125 15.675781 126.589844 13.753906 C 134.230469 12.351562 148.316406 12.632812 153.984375 18.476562 C 154.570312 19.105469 155.0625 19.800781 155.464844 20.5625 C 154.265625 19.429688 152.886719 18.589844 151.328125 18.046875 C 149.8125 17.542969 148.257812 17.214844 146.664062 17.0625 C 137.964844 16.402344 128.941406 17.296875 120.816406 20.523438 C 108.320312 25.460938 98.679688 37.480469 99.613281 51.570312 Z M 99.613281 51.570312 " fill-opacity="1" fill-rule="nonzero"/><path fill="#d9d9d9" d="M 150.585938 31.890625 C 150.621094 32.007812 150.6875 32.09375 150.789062 32.15625 C 150.894531 32.21875 151.003906 32.234375 151.121094 32.210938 C 151.601562 32.160156 151.691406 31.648438 151.75 31.230469 C 151.925781 29.980469 152.171875 28.746094 152.492188 27.523438 C 158.203125 7.96875 179.871094 -0.871094 198.230469 6.929688 C 209.6875 11.625 218.308594 23.386719 219.140625 35.523438 C 214.144531 20.910156 201.226562 9.683594 185.707031 9.15625 C 172.359375 8.355469 159.796875 16.148438 153.820312 28.019531 L 153.160156 29.324219 C 152.8125 30.277344 152.390625 31.195312 151.898438 32.085938 C 151.558594 32.550781 150.601562 32.535156 150.585938 31.875 Z M 150.585938 31.890625 " fill-opacity="1" fill-rule="nonzero"/><path fill="#d9d9d9" d="M 215.9375 25.878906 C 219.332031 17.363281 230.671875 11.691406 239.050781 9.007812 C 249.179688 5.839844 258.773438 7.296875 268.453125 11.164062 C 273.234375 12.933594 277.5625 15.472656 281.4375 18.789062 C 292.9375 28.589844 297.261719 45.980469 291.074219 59.574219 C 293.917969 45.578125 289.183594 31.210938 278.335938 22.414062 C 274.78125 19.582031 270.871094 17.390625 266.597656 15.835938 C 260.265625 13.324219 253.605469 11.46875 246.753906 11.886719 C 239.902344 12.300781 233.214844 14.441406 226.890625 17.378906 C 222.65625 19.359375 218.59375 21.976562 215.914062 25.890625 Z M 215.9375 25.878906 " fill-opacity="1" fill-rule="nonzero"/><path fill="#d9d9d9" d="M 292.632812 51.933594 C 306.46875 50.5625 321.554688 55.554688 331.511719 65.644531 C 342.679688 76.769531 347.507812 93.824219 342.8125 109.015625 C 341.769531 112.441406 340.324219 115.6875 338.472656 118.753906 C 336.035156 122.796875 332.945312 126.257812 329.199219 129.136719 C 339.296875 116.945312 342.921875 100.421875 337.941406 85.570312 C 331.265625 65.609375 312.988281 54.5 292.632812 51.914062 Z M 292.632812 51.933594 " fill-opacity="1" fill-rule="nonzero"/><path fill="#d9d9d9" d="M 340.359375 108.371094 C 344.148438 108.113281 347.425781 111.003906 349.257812 114.082031 C 350.578125 116.277344 351.457031 118.640625 351.894531 121.167969 C 352.328125 123.695312 352.289062 126.214844 351.777344 128.726562 C 351.511719 129.996094 351.132812 131.234375 350.644531 132.433594 L 349.035156 129.824219 C 351.339844 129.84375 353.5625 130.277344 355.707031 131.128906 C 366.40625 135.386719 371.28125 146.703125 372.800781 157.386719 C 373.523438 161.546875 373.882812 165.738281 373.882812 169.964844 C 373.660156 183.042969 367.207031 189.367188 356.042969 194.894531 C 350.5625 197.660156 344.175781 199.882812 338.03125 198.554688 C 346.1875 198.554688 353.238281 193.707031 359.578125 189.085938 C 368.757812 182.414062 369.914062 174.722656 368.707031 164.105469 C 367.792969 156.535156 366.578125 148.53125 362.253906 142.113281 C 359.214844 137.664062 354.433594 134 348.90625 133.523438 C 348.753906 133.523438 348.605469 133.5 348.457031 133.460938 C 348.308594 133.421875 348.167969 133.363281 348.035156 133.289062 C 347.902344 133.210938 347.78125 133.121094 347.671875 133.015625 C 347.5625 132.910156 347.464844 132.792969 347.386719 132.660156 C 347.304688 132.53125 347.242188 132.394531 347.199219 132.246094 C 347.152344 132.101562 347.125 131.953125 347.117188 131.800781 C 347.109375 131.648438 347.121094 131.496094 347.152344 131.34375 C 347.183594 131.195312 347.230469 131.050781 347.296875 130.914062 C 347.910156 129.675781 348.382812 128.386719 348.714844 127.042969 C 349.042969 125.703125 349.226562 124.339844 349.261719 122.960938 C 349.292969 121.578125 349.179688 120.210938 348.914062 118.855469 C 348.648438 117.5 348.242188 116.1875 347.691406 114.917969 C 346.34375 111.835938 343.871094 108.855469 340.34375 108.371094 Z M 340.359375 108.371094 " fill-opacity="1" fill-rule="nonzero"/><path fill="#d9d9d9" d="M 298.730469 233.015625 C 301.953125 234.890625 305.566406 235.980469 309.109375 236.921875 C 312.632812 237.785156 316.210938 238.210938 319.839844 238.207031 C 323.390625 238.265625 326.890625 237.867188 330.339844 237.011719 C 333.683594 236.03125 336.773438 234.527344 339.609375 232.5 C 342.441406 230.472656 344.863281 228.035156 346.867188 225.183594 C 352.140625 217.867188 354.074219 208.671875 353.832031 199.714844 C 353.773438 197.835938 353.601562 196.003906 353.402344 194.105469 C 354.347656 196.355469 355.0625 198.675781 355.554688 201.066406 C 356.042969 203.453125 356.296875 205.867188 356.3125 208.308594 C 356.328125 210.746094 356.105469 213.164062 355.648438 215.558594 C 355.1875 217.957031 354.503906 220.285156 353.585938 222.542969 C 349.410156 232.792969 339.625 240.898438 328.484375 242.144531 C 325.058594 242.53125 321.632812 242.480469 318.21875 241.992188 C 314.800781 241.507812 311.5 240.597656 308.316406 239.265625 C 304.847656 237.664062 301.390625 235.847656 298.730469 233.050781 Z M 298.730469 233.015625 " fill-opacity="1" fill-rule="nonzero"/><path fill="#d9d9d9" d="M 246.984375 242.359375 C 257.523438 246.925781 268.761719 247.941406 279.648438 244.910156 C 282.621094 244.238281 285.433594 243.15625 288.085938 241.652344 C 290.222656 240.296875 292.308594 239.09375 294.019531 237.324219 C 299.953125 230.945312 303.132812 223.09375 305.585938 214.542969 C 305.890625 222.839844 303.660156 231.730469 298.660156 238.710938 C 296.710938 241.714844 293.65625 243.902344 290.78125 245.804688 C 287.722656 247.808594 284.304688 248.863281 280.871094 249.699219 C 269.34375 252.664062 255.941406 250.269531 247.007812 242.359375 Z M 246.984375 242.359375 " fill-opacity="1" fill-rule="nonzero"/><path fill="#d9d9d9" d="M 253.644531 246.332031 C 243.226562 260.71875 221.824219 266.859375 204.820312 263.601562 C 199.4375 262.691406 193.757812 260.882812 189.398438 257.320312 C 185.039062 253.761719 182.40625 248.644531 180.632812 243.582031 C 183 246.257812 185.195312 249.023438 187.691406 251.257812 C 190.132812 253.472656 192.898438 255.148438 195.992188 256.292969 C 202.382812 258.421875 208.949219 259.550781 215.683594 259.671875 C 229.359375 259.496094 243.085938 255.476562 253.644531 246.324219 Z M 253.644531 246.332031 " fill-opacity="1" fill-rule="nonzero"/><path fill="#d9d9d9" d="M 112.441406 230.011719 C 119.65625 239.902344 129.03125 248.203125 140.40625 252.792969 C 148.453125 255.824219 157.15625 256.433594 165.824219 255.757812 C 172.855469 255.105469 179.863281 253.71875 186.152344 250.269531 C 183.425781 252.785156 180.34375 254.738281 176.910156 256.136719 C 164.921875 261.074219 150.890625 261.964844 138.605469 257.464844 C 126.515625 252.679688 116.292969 242.519531 112.441406 230.027344 Z M 112.441406 230.011719 " fill-opacity="1" fill-rule="nonzero"/><path fill="#d9d9d9" d="M 120.324219 241.203125 C 119.332031 246.390625 114.839844 250.375 109.945312 252.140625 C 105.050781 253.902344 99.5625 253.96875 94.371094 253.546875 C 86.429688 252.925781 78.140625 250.582031 72.332031 244.777344 C 70.292969 242.757812 68.726562 240.421875 67.632812 237.769531 L 71.75 238.457031 C 70.398438 240.019531 68.832031 241.316406 67.046875 242.351562 C 58.527344 247.347656 48.109375 245.507812 39.277344 242.386719 C 27.351562 238.496094 21.480469 228.65625 20.390625 216.589844 C 19.839844 209.480469 20.390625 201.832031 24.054688 195.566406 C 21.53125 202.117188 21.777344 209.449219 22.96875 216.226562 C 25.054688 226.769531 30.058594 234.867188 40.765625 237.984375 C 46.9375 239.867188 53.945312 241.460938 60.238281 239.792969 C 63.296875 239.066406 65.894531 237.554688 68.03125 235.253906 C 68.167969 235.09375 68.324219 234.953125 68.496094 234.832031 C 68.667969 234.710938 68.851562 234.613281 69.050781 234.542969 C 69.25 234.46875 69.453125 234.421875 69.660156 234.402344 C 69.871094 234.382812 70.078125 234.390625 70.289062 234.425781 C 70.496094 234.460938 70.695312 234.523438 70.886719 234.609375 C 71.078125 234.695312 71.253906 234.804688 71.417969 234.9375 C 71.582031 235.070312 71.726562 235.222656 71.847656 235.394531 C 71.972656 235.5625 72.074219 235.746094 72.148438 235.945312 C 72.992188 238.023438 74.1875 239.871094 75.738281 241.492188 C 80.660156 246.71875 87.863281 248.941406 94.839844 250.03125 C 102.039062 251.183594 109.832031 251.632812 115.863281 247.03125 C 117.890625 245.503906 119.371094 243.558594 120.308594 241.203125 Z M 120.324219 241.203125 " fill-opacity="1" fill-rule="nonzero"/><path fill="#d9d9d9" d="M 30.222656 197.042969 C 20.449219 197.820312 12.613281 189.21875 8.015625 181.515625 C 3.121094 173.046875 1.125 162.554688 5.640625 153.5625 C 6.804688 151.046875 8.296875 148.75 10.117188 146.664062 C 11.941406 144.578125 14.015625 142.789062 16.347656 141.296875 C 17.011719 140.902344 17.695312 140.550781 18.402344 140.242188 C 16.210938 142.289062 14.347656 144.597656 12.8125 147.175781 C 9.925781 151.964844 7.746094 157.625 7.769531 163.148438 C 7.867188 165.945312 8.308594 168.683594 9.089844 171.371094 C 11.957031 180.96875 19.820312 194.441406 30.222656 197.082031 Z M 30.222656 197.042969 " fill-opacity="1" fill-rule="nonzero"/><path fill="#d9d9d9" d="M 27.382812 153.375 C 19.433594 146.628906 11.722656 137.492188 12.175781 126.464844 C 12.914062 112.515625 22.09375 97.582031 35.835938 93.347656 C 37.945312 92.6875 40.105469 92.3125 42.316406 92.222656 C 43.617188 92.175781 44.914062 92.242188 46.203125 92.421875 C 32.722656 94.648438 23.304688 105.207031 19.03125 117.515625 C 17.4375 121.964844 16.414062 126.621094 16.988281 131.300781 C 18.015625 139.53125 23.171875 146.464844 27.367188 153.390625 Z M 27.382812 153.375 " fill-opacity="1" fill-rule="nonzero"/><path fill="#d9d9d9" d="M 59.890625 123.164062 C 54.285156 122.386719 48.613281 126.746094 45.0625 130.699219 C 43.433594 132.585938 42.097656 134.65625 41.042969 136.914062 C 34.265625 150.9375 42.300781 167.25 56.703125 172.320312 C 55.203125 172.066406 53.742188 171.671875 52.316406 171.144531 C 50.890625 170.617188 49.523438 169.964844 48.21875 169.183594 C 46.917969 168.402344 45.695312 167.507812 44.554688 166.496094 C 43.417969 165.488281 42.382812 164.386719 41.449219 163.1875 C 33.179688 152.921875 34.417969 138.507812 43.539062 129.253906 C 47.46875 125.332031 54.226562 121.222656 59.890625 123.164062 Z M 59.890625 123.164062 " fill-opacity="1" fill-rule="nonzero"/><path fill="#d9d9d9" d="M 86.964844 165.890625 C 84.46875 165.304688 81.9375 165.066406 79.375 165.179688 C 76.8125 165.292969 74.316406 165.753906 71.882812 166.558594 C 67.039062 168.15625 62.5 170.378906 58.273438 173.234375 C 51.535156 177.808594 48.285156 183.546875 47.351562 191.601562 C 46.703125 196.574219 47.285156 201.402344 49.09375 206.082031 C 50.066406 208.355469 51.371094 210.417969 53.003906 212.269531 C 54.636719 214.125 56.515625 215.679688 58.644531 216.929688 C 66.875 222.320312 77.40625 226.570312 87.074219 222.589844 C 89.488281 221.636719 91.585938 220.21875 93.371094 218.332031 C 90.234375 222.574219 85.015625 224.933594 79.824219 225.464844 C 74.632812 226 69.191406 224.726562 64.355469 222.605469 C 59.519531 220.484375 54.8125 217.871094 51.050781 213.964844 C 45.453125 207.9375 43.636719 199.222656 44.703125 191.253906 C 45.714844 182.652344 49.679688 175.992188 57.101562 171.4375 C 61.597656 168.652344 66.40625 166.597656 71.527344 165.277344 C 74.070312 164.609375 76.660156 164.328125 79.289062 164.433594 C 81.921875 164.539062 84.480469 165.023438 86.964844 165.890625 Z M 86.964844 165.890625 " fill-opacity="1" fill-rule="nonzero"/><path fill="#d9d9d9" d="M 301.027344 85.414062 C 306.21875 85.414062 311.824219 85.601562 316.597656 88.070312 C 322.449219 91.035156 326.007812 97.332031 327.203125 103.640625 C 328.449219 110.828125 328.1875 120.453125 324.238281 126.738281 C 320.046875 133.554688 312.105469 137.601562 304.214844 137.863281 C 300.328125 138.007812 296.546875 137.441406 292.871094 136.164062 C 296.597656 136.871094 300.339844 136.992188 304.105469 136.527344 C 311.273438 135.675781 318.347656 131.722656 321.992188 125.40625 C 325.386719 119.628906 325.617188 110.648438 324.628906 104.109375 C 323.761719 98.777344 321.25 93.5625 316.859375 90.316406 C 312.292969 86.957031 306.476562 86.296875 300.984375 85.445312 Z M 301.027344 85.414062 " fill-opacity="1" fill-rule="nonzero"/><path fill="#d9d9d9" d="M 306.820312 136.023438 C 307.085938 136.15625 307.359375 136.175781 307.640625 136.074219 C 308.945312 135.808594 310.082031 135.015625 311.460938 135.023438 C 317.496094 135.925781 319.070312 145.402344 317.5625 150.277344 C 316.917969 152.640625 315.546875 155.101562 313.308594 156.207031 C 315.804688 152.269531 315.777344 147.652344 315.109375 143.277344 C 314.554688 140.644531 313.765625 137.5 311.214844 136.171875 C 310.097656 136.046875 308.828125 136.429688 307.65625 136.320312 C 307.367188 136.320312 306.988281 136.269531 306.820312 135.992188 Z M 306.820312 136.023438 " fill-opacity="1" fill-rule="nonzero"/><path fill="#d9d9d9" d="M 293.746094 115.46875 C 290.199219 118.070312 286.464844 120.742188 284.046875 124.449219 C 277.957031 134.089844 281.882812 146.300781 289.980469 153.472656 C 291.570312 154.941406 293.277344 156.265625 295.09375 157.445312 C 295.351562 157.617188 295.53125 157.847656 295.628906 158.140625 C 295.726562 158.433594 295.722656 158.726562 295.621094 159.019531 C 293.335938 165.527344 290.800781 172.367188 292.078125 179.300781 C 292.363281 180.8125 292.796875 182.28125 293.378906 183.703125 C 293.960938 185.128906 294.683594 186.480469 295.539062 187.757812 C 296.398438 189.035156 297.375 190.214844 298.472656 191.292969 C 299.570312 192.371094 300.765625 193.332031 302.058594 194.167969 C 309.835938 199.097656 320.300781 198.4375 327.765625 192.964844 C 326.960938 193.695312 326.113281 194.367188 325.222656 194.988281 C 322.113281 197.035156 318.710938 198.273438 315.011719 198.695312 C 304.542969 199.988281 294.777344 193.796875 290.832031 184.113281 C 287.125 175.652344 290.015625 166.21875 293.117188 158.089844 L 293.632812 159.65625 C 289.675781 157.109375 286.363281 153.894531 283.699219 150.015625 C 278.367188 142.429688 277.335938 131.375 283.082031 123.738281 C 285.871094 120.027344 289.835938 117.691406 293.753906 115.445312 Z M 293.746094 115.46875 " fill-opacity="1" fill-rule="nonzero"/><path fill="#f0f0f0" d="M 308.894531 92.355469 C 309.832031 92.792969 310.734375 93.304688 311.59375 93.878906 C 312.457031 94.457031 313.269531 95.09375 314.03125 95.796875 C 314.796875 96.496094 315.5 97.253906 316.148438 98.0625 C 316.796875 98.871094 317.378906 99.722656 317.898438 100.621094 C 318.417969 101.519531 318.863281 102.453125 319.238281 103.417969 C 319.613281 104.382812 319.914062 105.371094 320.136719 106.382812 C 320.363281 107.398438 320.507812 108.417969 320.578125 109.453125 C 320.644531 110.488281 320.632812 111.523438 320.542969 112.554688 C 320.046875 118.019531 318.199219 123.804688 313.707031 127.332031 C 312.800781 128.074219 311.832031 128.710938 310.792969 129.246094 C 309.753906 129.78125 308.671875 130.203125 307.542969 130.511719 C 306.417969 130.820312 305.269531 131.007812 304.101562 131.074219 C 302.9375 131.144531 301.773438 131.089844 300.621094 130.914062 L 300.621094 130.648438 C 302.726562 130.320312 304.742188 129.699219 306.667969 128.78125 C 308.59375 127.863281 310.347656 126.6875 311.929688 125.257812 C 314.417969 122.929688 316.246094 120.164062 317.421875 116.964844 C 317.628906 116.226562 317.90625 115.429688 318.074219 114.683594 C 318.425781 113.125 318.636719 111.550781 318.707031 109.960938 C 318.972656 102.847656 314.84375 96.253906 308.777344 92.59375 L 308.894531 92.347656 Z M 308.894531 92.355469 " fill-opacity="1" fill-rule="nonzero"/><path fill="#d9d9d9" d="M 224.472656 242.226562 C 225.933594 242.757812 227.445312 243.054688 229 243.117188 C 230.558594 243.175781 232.085938 243 233.585938 242.582031 C 239.695312 241.054688 245.503906 239.675781 248.980469 234.054688 C 250.617188 231.34375 252 228.511719 253.125 225.554688 C 253.015625 228.894531 252.257812 232.082031 250.847656 235.113281 C 248.558594 240.023438 243.953125 242.78125 238.796875 243.863281 C 233.890625 244.953125 228.617188 245.730469 224.472656 242.226562 Z M 224.472656 242.226562 " fill-opacity="1" fill-rule="nonzero"/><path fill="#d9d9d9" d="M 167.6875 233.007812 C 167.359375 232.933594 167.042969 232.835938 166.722656 232.753906 L 166.914062 232.398438 C 171.535156 234.105469 176.257812 236.246094 181.054688 236.847656 C 183.441406 237.089844 185.796875 236.921875 188.121094 236.335938 C 190.558594 235.722656 192.847656 234.769531 194.996094 233.46875 C 191.90625 237.863281 186.097656 240.089844 180.789062 239.5625 C 178.089844 239.238281 175.546875 238.425781 173.160156 237.128906 C 170.8125 235.960938 168.65625 234.503906 166.699219 232.753906 C 166.640625 232.722656 166.601562 232.675781 166.589844 232.609375 C 166.574219 232.542969 166.589844 232.480469 166.632812 232.429688 C 166.722656 232.335938 166.8125 232.335938 166.902344 232.429688 C 167.160156 232.628906 167.425781 232.828125 167.6875 233.042969 Z M 167.6875 233.007812 " fill-opacity="1" fill-rule="nonzero"/><path fill="#f0f0f0" d="M 55.433594 129.128906 C 49.503906 134.835938 45.699219 143.875 48.84375 151.878906 C 49.6875 154.152344 50.585938 156.453125 51.554688 158.675781 C 52.601562 161.109375 53.816406 163.414062 54.789062 165.914062 L 54.457031 166.226562 C 52.820312 165.3125 51.335938 164.195312 50.007812 162.875 C 48.617188 161.546875 47.457031 160.042969 46.519531 158.363281 C 45.585938 156.683594 44.917969 154.90625 44.519531 153.027344 C 43.960938 150.179688 43.945312 147.328125 44.46875 144.472656 C 44.996094 141.621094 46.023438 138.960938 47.558594 136.5 C 49.550781 133.371094 52.09375 130.792969 55.195312 128.765625 L 55.464844 129.128906 Z M 55.433594 129.128906 " fill-opacity="1" fill-rule="nonzero"/><path fill="#f0f0f0" d="M 54.5 184.683594 C 53.722656 192.707031 54.746094 201.738281 60.121094 208.027344 C 63.085938 211.316406 67.285156 212.898438 71.324219 214.394531 C 74.824219 215.566406 78.378906 216.226562 81.964844 217.183594 L 81.964844 217.636719 C 79.28125 218.527344 76.527344 218.941406 73.699219 218.875 C 71.644531 218.894531 69.640625 218.597656 67.679688 217.988281 C 65.71875 217.378906 63.898438 216.484375 62.21875 215.308594 C 56.507812 211.183594 53.320312 204.457031 52.800781 197.5625 C 52.449219 193.160156 52.859375 188.832031 54.039062 184.578125 L 54.476562 184.683594 Z M 54.5 184.683594 " fill-opacity="1" fill-rule="nonzero"/><path fill="#f0f0f0" d="M 17.253906 154.644531 C 16.988281 156.777344 16.957031 158.910156 17.152344 161.050781 C 17.351562 163.191406 17.777344 165.285156 18.425781 167.332031 C 19.078125 169.382812 19.941406 171.335938 21.011719 173.195312 C 22.085938 175.058594 23.347656 176.785156 24.792969 178.371094 C 27.117188 180.871094 29.242188 183.414062 31.558594 185.972656 C 32.75 187.320312 33.960938 188.628906 35.070312 190.101562 L 34.828125 190.488281 C 33.910156 190.277344 33.011719 190.007812 32.128906 189.679688 C 29.917969 188.839844 27.882812 187.691406 26.023438 186.230469 C 24.160156 184.769531 22.5625 183.0625 21.21875 181.117188 C 18.253906 176.355469 15.984375 171.015625 15.570312 165.378906 C 15.226562 161.679688 15.644531 158.066406 16.816406 154.539062 L 17.253906 154.664062 Z M 17.253906 154.644531 " fill-opacity="1" fill-rule="nonzero"/><path fill="#f0f0f0" d="M 28.933594 205.402344 C 29.398438 213.972656 32.691406 223.375 40.664062 227.492188 C 41.285156 227.816406 41.976562 228.054688 42.621094 228.320312 L 44.320312 228.839844 C 49.011719 229.996094 53.765625 230.738281 58.585938 231.066406 C 59.632812 231.132812 60.691406 231.21875 61.78125 231.398438 L 61.863281 231.84375 C 56.523438 234.503906 49.875 235.425781 44.066406 233.5625 C 41.617188 232.710938 39.375 231.480469 37.339844 229.871094 C 35.304688 228.261719 33.59375 226.359375 32.203125 224.167969 C 28.804688 218.5625 27.753906 211.71875 28.496094 205.355469 L 28.949219 205.394531 Z M 28.933594 205.402344 " fill-opacity="1" fill-rule="nonzero"/><path fill="#f0f0f0" d="M 42.25 100.164062 C 39.410156 102.582031 36.929688 105.324219 34.800781 108.386719 C 32.675781 111.449219 30.972656 114.730469 29.695312 118.234375 C 28.539062 121.644531 28.367188 125.203125 27.9375 128.734375 C 27.523438 132.398438 27.597656 136.148438 27.464844 139.855469 L 27.035156 139.992188 C 26.453125 139.164062 25.945312 138.296875 25.507812 137.386719 C 24.402344 135.078125 23.730469 132.644531 23.496094 130.09375 C 23.261719 127.542969 23.472656 125.03125 24.136719 122.558594 C 25.871094 116.714844 28.816406 111.5625 32.964844 107.097656 C 35.613281 104.207031 38.625 101.765625 42 99.769531 L 42.25 100.148438 Z M 42.25 100.164062 " fill-opacity="1" fill-rule="nonzero"/><path fill="#f0f0f0" d="M 88.253906 46.21875 C 78.613281 49.597656 69.449219 55.308594 63.613281 63.777344 C 60.320312 68.664062 58.914062 74.449219 57.867188 80.164062 C 57.808594 80.773438 57.601562 82.335938 57.519531 82.953125 C 57.4375 83.566406 57.429688 84.214844 57.378906 84.84375 C 57.132812 87.46875 57.214844 90.035156 57.066406 92.675781 L 56.628906 92.777344 C 55.605469 90.617188 54.839844 88.367188 54.335938 86.03125 C 53.179688 80.222656 53.59375 74.03125 56.175781 68.640625 C 58.691406 63.617188 62.121094 59.328125 66.46875 55.769531 C 69.636719 53.269531 73.050781 51.175781 76.71875 49.484375 C 80.382812 47.796875 84.191406 46.558594 88.152344 45.773438 Z M 88.253906 46.21875 " fill-opacity="1" fill-rule="nonzero"/><path fill="#f0f0f0" d="M 289.769531 125.316406 C 289.007812 127.78125 288.609375 130.304688 288.566406 132.886719 C 288.527344 135.464844 288.851562 138 289.535156 140.488281 C 290.355469 142.839844 291.511719 145.011719 293.003906 147.003906 C 294.523438 149.0625 296.210938 150.972656 298.0625 152.738281 L 297.941406 152.9375 C 296.648438 152.503906 295.4375 151.90625 294.308594 151.136719 C 287.160156 146.492188 286.101562 136.574219 288.230469 128.972656 C 288.570312 127.699219 289.015625 126.460938 289.5625 125.265625 L 289.769531 125.34375 Z M 289.769531 125.316406 " fill-opacity="1" fill-rule="nonzero"/><path fill="#f0f0f0" d="M 300.226562 164.429688 C 299.484375 170.453125 299.484375 177.527344 303.347656 182.496094 C 304.445312 183.765625 305.773438 184.714844 307.332031 185.34375 C 308.40625 185.757812 309.421875 186.210938 310.546875 186.542969 C 313.515625 187.566406 316.777344 187.980469 319.863281 188.820312 L 319.914062 189.273438 C 318.332031 190.082031 316.667969 190.640625 314.917969 190.941406 C 308.835938 191.925781 303.683594 189.910156 300.375 184.601562 C 297.46875 179.980469 297.410156 174.316406 298.417969 169.167969 C 298.738281 167.511719 299.195312 165.890625 299.789062 164.304688 Z M 300.226562 164.429688 " fill-opacity="1" fill-rule="nonzero"/><path fill="#2b2b2b" d="M 160.664062 89.464844 C 151.378906 84.726562 139.046875 83.695312 129.484375 87.847656 C 128.382812 88.292969 127.347656 88.867188 126.382812 89.5625 C 125.417969 90.253906 124.546875 91.054688 123.773438 91.957031 C 123 92.859375 122.34375 93.84375 121.804688 94.902344 C 121.265625 95.960938 120.859375 97.070312 120.585938 98.226562 C 120.429688 99.082031 120.367188 99.941406 120.398438 100.808594 L 121.023438 101.039062 C 124.0625 99.074219 126.582031 96.839844 129.566406 94.875 L 133.449219 92.183594 C 137.417969 89.21875 143.148438 88.261719 148.660156 88.304688 C 152.636719 88.351562 156.550781 88.878906 160.398438 89.886719 L 160.695312 89.425781 Z M 160.664062 89.464844 " fill-opacity="1" fill-rule="nonzero"/><path fill="#2b2b2b" d="M 212.320312 87.742188 C 221.292969 82.441406 233.535156 80.640625 243.335938 84.191406 C 244.46875 84.570312 245.539062 85.074219 246.550781 85.710938 C 247.5625 86.347656 248.480469 87.09375 249.3125 87.949219 C 250.144531 88.804688 250.863281 89.746094 251.46875 90.773438 C 252.074219 91.804688 252.550781 92.886719 252.894531 94.03125 C 253.101562 94.875 253.21875 95.730469 253.242188 96.597656 L 252.636719 96.863281 C 249.476562 95.089844 246.820312 93.023438 243.738281 91.242188 L 239.667969 88.804688 C 235.519531 86.117188 229.746094 85.488281 224.242188 85.875 C 220.277344 86.171875 216.40625 86.945312 212.628906 88.1875 L 212.304688 87.742188 Z M 212.320312 87.742188 " fill-opacity="1" fill-rule="nonzero"/><path fill="#f0f0f0" d="M 154.152344 104.101562 C 155.015625 104.113281 155.871094 104.179688 156.726562 104.300781 C 157.582031 104.425781 158.429688 104.605469 159.273438 104.84375 C 160.113281 105.078125 160.945312 105.371094 161.761719 105.71875 C 162.582031 106.0625 163.386719 106.464844 164.179688 106.917969 C 164.96875 107.371094 165.738281 107.878906 166.492188 108.433594 C 167.246094 108.992188 167.976562 109.59375 168.683594 110.25 C 169.390625 110.902344 170.074219 111.601562 170.730469 112.347656 C 171.386719 113.09375 172.015625 113.878906 172.613281 114.707031 C 173.214844 115.535156 173.78125 116.402344 174.316406 117.308594 C 174.851562 118.210938 175.355469 119.148438 175.820312 120.121094 C 176.289062 121.09375 176.71875 122.09375 177.113281 123.125 C 177.507812 124.152344 177.863281 125.207031 178.179688 126.285156 C 178.496094 127.359375 178.773438 128.457031 179.007812 129.570312 C 179.246094 130.6875 179.441406 131.816406 179.597656 132.957031 C 179.75 134.097656 179.863281 135.246094 179.9375 136.40625 C 180.007812 137.5625 180.035156 138.722656 180.023438 139.882812 C 180.007812 141.046875 179.953125 142.203125 179.855469 143.359375 C 179.757812 144.515625 179.617188 145.664062 179.4375 146.800781 C 179.257812 147.9375 179.035156 149.0625 178.773438 150.171875 C 178.507812 151.28125 178.207031 152.367188 177.867188 153.4375 C 177.523438 154.507812 177.144531 155.554688 176.726562 156.574219 C 176.308594 157.59375 175.855469 158.582031 175.367188 159.542969 C 174.878906 160.503906 174.355469 161.429688 173.796875 162.324219 C 173.242188 163.214844 172.65625 164.070312 172.035156 164.882812 C 171.417969 165.699219 170.773438 166.46875 170.097656 167.199219 C 169.425781 167.929688 168.726562 168.613281 168.003906 169.25 C 167.28125 169.886719 166.535156 170.476562 165.769531 171.015625 C 165.007812 171.554688 164.222656 172.039062 163.421875 172.476562 C 162.621094 172.910156 161.808594 173.292969 160.980469 173.621094 C 160.152344 173.949219 159.316406 174.222656 158.46875 174.4375 C 157.625 174.65625 156.769531 174.816406 155.914062 174.917969 C 155.054688 175.023438 154.195312 175.070312 153.335938 175.0625 C 152.476562 175.050781 151.617188 174.984375 150.761719 174.859375 C 149.90625 174.738281 149.058594 174.558594 148.21875 174.320312 C 147.375 174.082031 146.546875 173.792969 145.726562 173.445312 C 144.90625 173.097656 144.101562 172.699219 143.3125 172.246094 C 142.519531 171.789062 141.75 171.285156 140.996094 170.730469 C 140.242188 170.171875 139.511719 169.566406 138.804688 168.914062 C 138.097656 168.257812 137.414062 167.558594 136.757812 166.816406 C 136.101562 166.070312 135.472656 165.285156 134.875 164.457031 C 134.273438 163.625 133.707031 162.761719 133.171875 161.855469 C 132.636719 160.949219 132.136719 160.011719 131.667969 159.042969 C 131.199219 158.070312 130.769531 157.070312 130.375 156.039062 C 129.984375 155.011719 129.628906 153.957031 129.308594 152.878906 C 128.992188 151.800781 128.714844 150.707031 128.480469 149.589844 C 128.242188 148.476562 128.046875 147.347656 127.890625 146.207031 C 127.738281 145.066406 127.625 143.914062 127.554688 142.757812 C 127.480469 141.601562 127.453125 140.441406 127.464844 139.277344 C 127.480469 138.117188 127.535156 136.957031 127.632812 135.800781 C 127.730469 134.648438 127.871094 133.5 128.050781 132.363281 C 128.230469 131.226562 128.453125 130.101562 128.714844 128.992188 C 128.980469 127.882812 129.28125 126.792969 129.625 125.722656 C 129.964844 124.65625 130.34375 123.609375 130.761719 122.589844 C 131.179688 121.570312 131.632812 120.578125 132.121094 119.617188 C 132.613281 118.65625 133.132812 117.730469 133.691406 116.839844 C 134.246094 115.949219 134.835938 115.09375 135.453125 114.28125 C 136.070312 113.464844 136.714844 112.691406 137.390625 111.964844 C 138.0625 111.234375 138.761719 110.550781 139.484375 109.914062 C 140.207031 109.277344 140.953125 108.6875 141.71875 108.148438 C 142.484375 107.609375 143.265625 107.121094 144.066406 106.6875 C 144.867188 106.25 145.679688 105.871094 146.507812 105.542969 C 147.335938 105.214844 148.171875 104.941406 149.019531 104.722656 C 149.867188 104.507812 150.71875 104.347656 151.574219 104.242188 C 152.433594 104.140625 153.292969 104.09375 154.152344 104.101562 Z M 154.152344 104.101562 " fill-opacity="1" fill-rule="nonzero"/><path fill="#f0f0f0" d="M 218.976562 104.855469 C 219.835938 104.867188 220.695312 104.933594 221.546875 105.054688 C 222.402344 105.179688 223.253906 105.359375 224.09375 105.597656 C 224.933594 105.832031 225.765625 106.125 226.585938 106.472656 C 227.40625 106.820312 228.210938 107.21875 229 107.671875 C 229.789062 108.125 230.5625 108.632812 231.3125 109.1875 C 232.066406 109.746094 232.796875 110.351562 233.503906 111.003906 C 234.214844 111.65625 234.894531 112.355469 235.550781 113.101562 C 236.210938 113.847656 236.835938 114.632812 237.4375 115.460938 C 238.035156 116.289062 238.601562 117.15625 239.136719 118.0625 C 239.675781 118.964844 240.175781 119.902344 240.640625 120.875 C 241.109375 121.847656 241.539062 122.847656 241.933594 123.878906 C 242.328125 124.90625 242.683594 125.960938 243 127.039062 C 243.316406 128.113281 243.59375 129.210938 243.832031 130.324219 C 244.066406 131.441406 244.265625 132.570312 244.417969 133.710938 C 244.574219 134.851562 244.6875 136 244.757812 137.160156 C 244.828125 138.316406 244.859375 139.476562 244.84375 140.636719 C 244.832031 141.800781 244.773438 142.957031 244.675781 144.113281 C 244.578125 145.269531 244.441406 146.417969 244.257812 147.554688 C 244.078125 148.691406 243.855469 149.816406 243.59375 150.925781 C 243.332031 152.035156 243.027344 153.121094 242.6875 154.191406 C 242.34375 155.261719 241.964844 156.308594 241.546875 157.328125 C 241.132812 158.347656 240.675781 159.339844 240.1875 160.296875 C 239.699219 161.257812 239.175781 162.1875 238.621094 163.078125 C 238.0625 163.96875 237.476562 164.824219 236.859375 165.636719 C 236.242188 166.453125 235.59375 167.222656 234.921875 167.953125 C 234.246094 168.683594 233.546875 169.367188 232.824219 170.003906 C 232.101562 170.640625 231.359375 171.230469 230.59375 171.769531 C 229.828125 172.308594 229.046875 172.792969 228.246094 173.230469 C 227.445312 173.664062 226.628906 174.046875 225.804688 174.375 C 224.976562 174.703125 224.136719 174.976562 223.292969 175.191406 C 222.445312 175.410156 221.59375 175.570312 220.734375 175.675781 C 219.878906 175.777344 219.019531 175.824219 218.15625 175.816406 C 217.296875 175.804688 216.4375 175.738281 215.582031 175.613281 C 214.730469 175.492188 213.878906 175.3125 213.039062 175.074219 C 212.199219 174.839844 211.367188 174.546875 210.546875 174.199219 C 209.726562 173.851562 208.921875 173.453125 208.132812 173 C 207.34375 172.542969 206.570312 172.039062 205.820312 171.484375 C 205.066406 170.925781 204.335938 170.320312 203.628906 169.667969 C 202.917969 169.015625 202.238281 168.3125 201.578125 167.570312 C 200.921875 166.824219 200.296875 166.039062 199.695312 165.210938 C 199.097656 164.378906 198.53125 163.515625 197.992188 162.609375 C 197.457031 161.703125 196.957031 160.765625 196.488281 159.796875 C 196.023438 158.824219 195.59375 157.824219 195.199219 156.792969 C 194.804688 155.765625 194.449219 154.710938 194.132812 153.632812 C 193.816406 152.554688 193.539062 151.460938 193.300781 150.34375 C 193.0625 149.230469 192.867188 148.101562 192.714844 146.960938 C 192.558594 145.820312 192.445312 144.667969 192.375 143.511719 C 192.304688 142.355469 192.273438 141.195312 192.289062 140.03125 C 192.300781 138.871094 192.355469 137.710938 192.453125 136.554688 C 192.550781 135.402344 192.691406 134.253906 192.871094 133.117188 C 193.054688 131.980469 193.277344 130.855469 193.539062 129.746094 C 193.800781 128.636719 194.101562 127.546875 194.445312 126.476562 C 194.785156 125.410156 195.167969 124.363281 195.582031 123.34375 C 196 122.324219 196.453125 121.332031 196.945312 120.371094 C 197.433594 119.410156 197.957031 118.484375 198.511719 117.59375 C 199.070312 116.703125 199.65625 115.847656 200.273438 115.035156 C 200.890625 114.21875 201.539062 113.445312 202.210938 112.71875 C 202.886719 111.988281 203.582031 111.304688 204.308594 110.667969 C 205.03125 110.03125 205.773438 109.441406 206.539062 108.902344 C 207.304688 108.363281 208.085938 107.875 208.886719 107.441406 C 209.6875 107.003906 210.5 106.625 211.328125 106.296875 C 212.15625 105.96875 212.992188 105.695312 213.839844 105.480469 C 214.6875 105.261719 215.539062 105.101562 216.398438 104.996094 C 217.253906 104.894531 218.113281 104.847656 218.976562 104.855469 Z M 218.976562 104.855469 " fill-opacity="1" fill-rule="nonzero"/><path fill="#2b2b2b" d="M 158.085938 126.539062 C 158.65625 126.542969 159.230469 126.589844 159.800781 126.667969 C 160.371094 126.75 160.9375 126.867188 161.496094 127.023438 C 162.058594 127.179688 162.613281 127.371094 163.160156 127.597656 C 163.707031 127.824219 164.242188 128.085938 164.769531 128.382812 C 165.296875 128.679688 165.808594 129.011719 166.3125 129.375 C 166.8125 129.738281 167.300781 130.136719 167.773438 130.5625 C 168.246094 130.992188 168.699219 131.449219 169.140625 131.9375 C 169.578125 132.421875 169.996094 132.9375 170.394531 133.480469 C 170.792969 134.023438 171.171875 134.589844 171.53125 135.183594 C 171.886719 135.773438 172.222656 136.386719 172.535156 137.023438 C 172.84375 137.660156 173.132812 138.3125 173.394531 138.988281 C 173.65625 139.660156 173.894531 140.351562 174.105469 141.054688 C 174.316406 141.761719 174.503906 142.476562 174.660156 143.207031 C 174.820312 143.9375 174.949219 144.675781 175.054688 145.421875 C 175.15625 146.167969 175.230469 146.921875 175.28125 147.679688 C 175.328125 148.4375 175.347656 149.195312 175.339844 149.957031 C 175.328125 150.714844 175.292969 151.472656 175.226562 152.230469 C 175.164062 152.984375 175.070312 153.734375 174.949219 154.480469 C 174.828125 155.226562 174.679688 155.960938 174.507812 156.6875 C 174.332031 157.410156 174.128906 158.125 173.902344 158.824219 C 173.675781 159.523438 173.421875 160.207031 173.144531 160.875 C 172.863281 161.542969 172.5625 162.191406 172.238281 162.820312 C 171.910156 163.449219 171.5625 164.054688 171.191406 164.636719 C 170.820312 165.222656 170.429688 165.777344 170.015625 166.3125 C 169.605469 166.84375 169.175781 167.351562 168.726562 167.828125 C 168.277344 168.304688 167.8125 168.75 167.328125 169.167969 C 166.847656 169.585938 166.351562 169.96875 165.839844 170.324219 C 165.332031 170.675781 164.808594 170.996094 164.273438 171.277344 C 163.742188 171.5625 163.199219 171.8125 162.648438 172.027344 C 162.09375 172.242188 161.539062 172.421875 160.972656 172.5625 C 160.410156 172.703125 159.839844 172.808594 159.269531 172.878906 C 158.695312 172.945312 158.125 172.976562 157.550781 172.96875 C 156.976562 172.960938 156.402344 172.917969 155.832031 172.835938 C 155.261719 172.757812 154.699219 172.636719 154.136719 172.484375 C 153.574219 172.328125 153.019531 172.136719 152.476562 171.910156 C 151.929688 171.683594 151.390625 171.421875 150.863281 171.125 C 150.339844 170.828125 149.824219 170.496094 149.320312 170.132812 C 148.820312 169.769531 148.332031 169.371094 147.859375 168.945312 C 147.386719 168.515625 146.933594 168.058594 146.496094 167.570312 C 146.058594 167.085938 145.636719 166.570312 145.238281 166.027344 C 144.839844 165.484375 144.460938 164.917969 144.101562 164.324219 C 143.746094 163.734375 143.410156 163.121094 143.101562 162.484375 C 142.789062 161.847656 142.5 161.191406 142.238281 160.519531 C 141.976562 159.847656 141.738281 159.15625 141.527344 158.453125 C 141.316406 157.746094 141.132812 157.027344 140.972656 156.300781 C 140.816406 155.570312 140.683594 154.832031 140.582031 154.085938 C 140.476562 153.335938 140.402344 152.585938 140.355469 151.828125 C 140.304688 151.070312 140.289062 150.3125 140.296875 149.550781 C 140.304688 148.792969 140.339844 148.035156 140.40625 147.277344 C 140.472656 146.519531 140.5625 145.769531 140.683594 145.027344 C 140.804688 144.28125 140.953125 143.546875 141.128906 142.820312 C 141.304688 142.09375 141.503906 141.382812 141.730469 140.683594 C 141.960938 139.984375 142.210938 139.300781 142.492188 138.632812 C 142.769531 137.964844 143.070312 137.316406 143.398438 136.6875 C 143.722656 136.058594 144.070312 135.453125 144.441406 134.871094 C 144.8125 134.285156 145.203125 133.726562 145.617188 133.195312 C 146.027344 132.660156 146.460938 132.15625 146.910156 131.679688 C 147.359375 131.203125 147.824219 130.753906 148.304688 130.339844 C 148.785156 129.921875 149.28125 129.535156 149.792969 129.183594 C 150.304688 128.832031 150.824219 128.511719 151.359375 128.226562 C 151.890625 127.941406 152.433594 127.695312 152.988281 127.480469 C 153.539062 127.265625 154.097656 127.085938 154.660156 126.945312 C 155.226562 126.804688 155.792969 126.699219 156.367188 126.628906 C 156.9375 126.5625 157.511719 126.53125 158.085938 126.539062 Z M 158.085938 126.539062 " fill-opacity="1" fill-rule="nonzero"/><path fill="#2b2b2b" d="M 213.625 126.65625 C 214.199219 126.660156 214.773438 126.703125 215.34375 126.785156 C 215.914062 126.867188 216.480469 126.984375 217.039062 127.140625 C 217.601562 127.292969 218.15625 127.484375 218.703125 127.710938 C 219.246094 127.941406 219.785156 128.203125 220.3125 128.5 C 220.839844 128.796875 221.351562 129.125 221.855469 129.492188 C 222.355469 129.855469 222.84375 130.25 223.316406 130.679688 C 223.789062 131.105469 224.242188 131.566406 224.679688 132.050781 C 225.121094 132.539062 225.539062 133.054688 225.9375 133.597656 C 226.335938 134.140625 226.714844 134.707031 227.074219 135.296875 C 227.429688 135.890625 227.765625 136.503906 228.074219 137.140625 C 228.386719 137.777344 228.675781 138.429688 228.9375 139.105469 C 229.199219 139.777344 229.4375 140.46875 229.648438 141.171875 C 229.859375 141.878906 230.046875 142.59375 230.203125 143.324219 C 230.363281 144.054688 230.492188 144.792969 230.597656 145.539062 C 230.699219 146.285156 230.773438 147.039062 230.820312 147.796875 C 230.871094 148.550781 230.890625 149.3125 230.878906 150.070312 C 230.871094 150.832031 230.835938 151.589844 230.769531 152.347656 C 230.703125 153.101562 230.613281 153.851562 230.492188 154.597656 C 230.371094 155.339844 230.222656 156.078125 230.046875 156.800781 C 229.875 157.527344 229.671875 158.242188 229.445312 158.941406 C 229.214844 159.640625 228.964844 160.324219 228.683594 160.992188 C 228.40625 161.660156 228.105469 162.308594 227.777344 162.9375 C 227.453125 163.5625 227.105469 164.171875 226.734375 164.753906 C 226.363281 165.335938 225.972656 165.894531 225.558594 166.429688 C 225.148438 166.960938 224.71875 167.464844 224.269531 167.945312 C 223.820312 168.421875 223.351562 168.867188 222.871094 169.285156 C 222.390625 169.703125 221.894531 170.085938 221.382812 170.441406 C 220.871094 170.792969 220.351562 171.109375 219.816406 171.394531 C 219.285156 171.679688 218.742188 171.929688 218.1875 172.144531 C 217.636719 172.359375 217.078125 172.535156 216.515625 172.679688 C 215.949219 172.820312 215.382812 172.925781 214.808594 172.992188 C 214.238281 173.0625 213.664062 173.09375 213.09375 173.085938 C 212.519531 173.078125 211.945312 173.035156 211.375 172.953125 C 210.804688 172.871094 210.238281 172.753906 209.679688 172.601562 C 209.117188 172.445312 208.5625 172.253906 208.015625 172.027344 C 207.46875 171.800781 206.933594 171.539062 206.40625 171.242188 C 205.878906 170.945312 205.367188 170.613281 204.863281 170.25 C 204.363281 169.886719 203.875 169.488281 203.402344 169.0625 C 202.929688 168.632812 202.476562 168.175781 202.039062 167.6875 C 201.597656 167.199219 201.179688 166.683594 200.78125 166.144531 C 200.382812 165.601562 200.003906 165.035156 199.644531 164.441406 C 199.289062 163.851562 198.953125 163.234375 198.640625 162.601562 C 198.332031 161.964844 198.042969 161.308594 197.78125 160.636719 C 197.519531 159.960938 197.28125 159.273438 197.070312 158.566406 C 196.859375 157.863281 196.671875 157.144531 196.515625 156.414062 C 196.355469 155.6875 196.226562 154.949219 196.121094 154.203125 C 196.019531 153.453125 195.945312 152.703125 195.894531 151.945312 C 195.847656 151.1875 195.828125 150.429688 195.839844 149.667969 C 195.847656 148.90625 195.882812 148.148438 195.949219 147.394531 C 196.015625 146.636719 196.105469 145.886719 196.226562 145.144531 C 196.347656 144.398438 196.496094 143.664062 196.671875 142.9375 C 196.84375 142.210938 197.046875 141.5 197.273438 140.800781 C 197.503906 140.097656 197.753906 139.414062 198.03125 138.75 C 198.3125 138.082031 198.613281 137.433594 198.941406 136.804688 C 199.265625 136.175781 199.613281 135.570312 199.984375 134.984375 C 200.355469 134.402344 200.746094 133.84375 201.160156 133.3125 C 201.570312 132.777344 202 132.273438 202.449219 131.796875 C 202.898438 131.320312 203.367188 130.871094 203.847656 130.453125 C 204.328125 130.039062 204.824219 129.652344 205.335938 129.300781 C 205.847656 128.949219 206.367188 128.628906 206.902344 128.34375 C 207.433594 128.058594 207.976562 127.808594 208.527344 127.59375 C 209.082031 127.382812 209.640625 127.203125 210.203125 127.0625 C 210.769531 126.917969 211.335938 126.8125 211.90625 126.746094 C 212.480469 126.679688 213.054688 126.648438 213.625 126.65625 Z M 213.625 126.65625 " fill-opacity="1" fill-rule="nonzero"/><path fill="#2b2b2b" d="M 187.96875 185.1875 C 185.617188 185.148438 183.320312 184.789062 181.070312 184.109375 C 178.824219 183.433594 176.710938 182.460938 174.730469 181.195312 C 174.609375 181.109375 174.507812 181.003906 174.425781 180.875 C 174.347656 180.75 174.292969 180.609375 174.269531 180.460938 C 174.242188 180.3125 174.246094 180.164062 174.28125 180.019531 C 174.3125 179.871094 174.375 179.738281 174.460938 179.613281 C 174.546875 179.492188 174.65625 179.390625 174.78125 179.308594 C 174.910156 179.230469 175.046875 179.175781 175.195312 179.152344 C 175.34375 179.125 175.492188 179.128906 175.640625 179.164062 C 175.785156 179.195312 175.921875 179.257812 176.042969 179.34375 C 176.570312 179.707031 188.9375 188.242188 200.796875 177.816406 C 201.035156 177.632812 201.304688 177.554688 201.601562 177.582031 C 201.902344 177.613281 202.152344 177.742188 202.347656 177.96875 C 202.546875 178.199219 202.636719 178.460938 202.625 178.761719 C 202.609375 179.0625 202.496094 179.320312 202.277344 179.527344 C 200.332031 181.332031 198.121094 182.722656 195.652344 183.699219 C 193.183594 184.675781 190.621094 185.171875 187.96875 185.1875 Z M 187.96875 185.1875 " fill-opacity="1" fill-rule="nonzero"/><path fill="#2b2b2b" d="M 227.859375 129.074219 C 229.019531 132.042969 231.710938 133.835938 233.867188 133.003906 C 236.023438 132.175781 236.832031 129.0625 235.675781 126.058594 C 234.519531 123.054688 231.828125 121.296875 229.671875 122.128906 C 227.511719 122.957031 226.695312 126.074219 227.859375 129.074219 Z M 227.859375 129.074219 " fill-opacity="1" fill-rule="nonzero"/><path fill="#2b2b2b" d="M 144.304688 129.492188 C 143.335938 132.5625 140.761719 134.480469 138.558594 133.785156 C 136.355469 133.085938 135.347656 130.039062 136.335938 126.96875 C 137.320312 123.898438 139.878906 121.980469 142.082031 122.675781 C 144.285156 123.375 145.277344 126.421875 144.304688 129.492188 Z M 144.304688 129.492188 " fill-opacity="1" fill-rule="nonzero"/><path fill="#2b2b2b" d="M 231.910156 184.015625 C 230.488281 184.015625 229.070312 183.945312 227.65625 183.808594 C 226.242188 183.667969 224.839844 183.460938 223.445312 183.1875 C 222.054688 182.910156 220.675781 182.566406 219.316406 182.152344 C 217.957031 181.742188 216.621094 181.265625 215.308594 180.722656 C 213.996094 180.179688 212.710938 179.570312 211.460938 178.902344 C 210.207031 178.234375 208.988281 177.503906 207.808594 176.714844 C 206.625 175.925781 205.484375 175.082031 204.386719 174.179688 C 203.289062 173.28125 202.238281 172.328125 201.230469 171.324219 C 200.226562 170.320312 199.273438 169.269531 198.371094 168.171875 C 197.46875 167.074219 196.625 165.933594 195.835938 164.753906 C 195.042969 163.570312 194.316406 162.355469 193.644531 161.101562 C 192.972656 159.847656 192.367188 158.566406 191.824219 157.253906 C 191.277344 155.941406 190.800781 154.605469 190.386719 153.246094 C 189.976562 151.886719 189.628906 150.511719 189.351562 149.117188 C 189.074219 147.726562 188.867188 146.320312 188.726562 144.90625 C 188.585938 143.492188 188.515625 142.078125 188.515625 140.65625 C 188.515625 139.234375 188.585938 137.816406 188.722656 136.402344 C 188.863281 134.988281 189.070312 133.585938 189.347656 132.191406 C 189.625 130.800781 189.96875 129.421875 190.378906 128.0625 C 190.792969 126.703125 191.269531 125.367188 191.8125 124.054688 C 192.355469 122.742188 192.964844 121.460938 193.632812 120.207031 C 194.300781 118.953125 195.03125 117.734375 195.820312 116.554688 C 196.609375 115.371094 197.453125 114.234375 198.355469 113.132812 C 199.257812 112.035156 200.210938 110.984375 201.214844 109.980469 C 202.21875 108.976562 203.269531 108.023438 204.367188 107.121094 C 205.464844 106.21875 206.605469 105.375 207.785156 104.585938 C 208.96875 103.796875 210.183594 103.066406 211.4375 102.394531 C 212.691406 101.726562 213.972656 101.117188 215.285156 100.574219 C 216.597656 100.03125 217.933594 99.554688 219.292969 99.140625 C 220.652344 98.726562 222.027344 98.382812 223.421875 98.105469 C 224.816406 97.828125 226.21875 97.621094 227.632812 97.480469 C 229.046875 97.339844 230.464844 97.273438 231.886719 97.273438 C 233.304688 97.269531 234.722656 97.339844 236.136719 97.480469 C 237.550781 97.621094 238.953125 97.828125 240.347656 98.105469 C 241.742188 98.382812 243.117188 98.726562 244.476562 99.140625 C 245.835938 99.550781 247.171875 100.03125 248.484375 100.574219 C 249.796875 101.117188 251.082031 101.722656 252.332031 102.394531 C 253.585938 103.0625 254.804688 103.792969 255.984375 104.582031 C 257.164062 105.371094 258.304688 106.214844 259.402344 107.117188 C 260.503906 108.019531 261.554688 108.972656 262.558594 109.976562 C 263.5625 110.980469 264.515625 112.03125 265.417969 113.132812 C 266.316406 114.230469 267.164062 115.367188 267.953125 116.550781 C 268.742188 117.730469 269.46875 118.949219 270.140625 120.203125 C 270.808594 121.453125 271.417969 122.738281 271.960938 124.050781 C 272.503906 125.363281 272.980469 126.699219 273.394531 128.058594 C 273.804688 129.417969 274.148438 130.792969 274.425781 132.1875 C 274.703125 133.582031 274.914062 134.984375 275.050781 136.398438 C 275.191406 137.8125 275.257812 139.230469 275.257812 140.652344 C 275.257812 142.070312 275.1875 143.484375 275.046875 144.898438 C 274.90625 146.3125 274.695312 147.714844 274.417969 149.105469 C 274.140625 150.496094 273.792969 151.871094 273.382812 153.230469 C 272.96875 154.589844 272.488281 155.921875 271.945312 157.234375 C 271.402344 158.546875 270.796875 159.828125 270.125 161.078125 C 269.457031 162.328125 268.726562 163.546875 267.9375 164.726562 C 267.148438 165.90625 266.304688 167.042969 265.40625 168.140625 C 264.503906 169.238281 263.550781 170.289062 262.546875 171.292969 C 261.542969 172.296875 260.496094 173.25 259.398438 174.152344 C 258.300781 175.050781 257.164062 175.898438 255.984375 176.6875 C 254.800781 177.476562 253.585938 178.203125 252.335938 178.875 C 251.085938 179.542969 249.804688 180.152344 248.492188 180.695312 C 247.179688 181.242188 245.847656 181.71875 244.488281 182.132812 C 243.132812 182.546875 241.757812 182.890625 240.363281 183.171875 C 238.972656 183.449219 237.570312 183.660156 236.15625 183.800781 C 234.746094 183.941406 233.328125 184.011719 231.910156 184.015625 Z M 231.910156 99.101562 C 230.550781 99.101562 229.191406 99.167969 227.839844 99.304688 C 226.484375 99.4375 225.140625 99.636719 223.808594 99.902344 C 222.476562 100.167969 221.15625 100.496094 219.855469 100.890625 C 218.554688 101.285156 217.273438 101.742188 216.019531 102.265625 C 214.761719 102.785156 213.535156 103.367188 212.335938 104.007812 C 211.136719 104.648438 209.96875 105.347656 208.839844 106.101562 C 207.707031 106.855469 206.617188 107.667969 205.566406 108.527344 C 204.515625 109.390625 203.507812 110.304688 202.546875 111.265625 C 201.585938 112.226562 200.671875 113.234375 199.808594 114.285156 C 198.949219 115.335938 198.136719 116.425781 197.382812 117.558594 C 196.628906 118.6875 195.929688 119.855469 195.289062 121.054688 C 194.648438 122.253906 194.066406 123.480469 193.546875 124.738281 C 193.023438 125.992188 192.566406 127.273438 192.171875 128.574219 C 191.777344 129.875 191.449219 131.195312 191.183594 132.527344 C 190.917969 133.859375 190.71875 135.203125 190.585938 136.558594 C 190.453125 137.910156 190.382812 139.269531 190.382812 140.628906 C 190.382812 141.988281 190.453125 143.34375 190.585938 144.699219 C 190.71875 146.050781 190.917969 147.394531 191.183594 148.730469 C 191.449219 150.0625 191.777344 151.382812 192.171875 152.683594 C 192.566406 153.984375 193.023438 155.261719 193.546875 156.519531 C 194.066406 157.777344 194.648438 159.003906 195.289062 160.203125 C 195.929688 161.402344 196.628906 162.566406 197.382812 163.699219 C 198.136719 164.828125 198.949219 165.921875 199.808594 166.972656 C 200.671875 168.023438 201.585938 169.03125 202.546875 169.992188 C 203.507812 170.953125 204.515625 171.863281 205.566406 172.726562 C 206.617188 173.589844 207.707031 174.398438 208.839844 175.15625 C 209.96875 175.910156 211.136719 176.609375 212.335938 177.25 C 213.535156 177.890625 214.761719 178.472656 216.019531 178.992188 C 217.273438 179.511719 218.554688 179.972656 219.855469 180.367188 C 221.15625 180.761719 222.476562 181.089844 223.808594 181.355469 C 225.140625 181.621094 226.484375 181.820312 227.839844 181.953125 C 229.191406 182.085938 230.550781 182.152344 231.910156 182.152344 C 233.269531 182.152344 234.625 182.085938 235.980469 181.953125 C 237.332031 181.820312 238.675781 181.621094 240.011719 181.355469 C 241.34375 181.089844 242.664062 180.761719 243.964844 180.367188 C 245.265625 179.972656 246.542969 179.511719 247.800781 178.992188 C 249.058594 178.472656 250.285156 177.890625 251.484375 177.25 C 252.683594 176.609375 253.847656 175.910156 254.980469 175.15625 C 256.109375 174.398438 257.203125 173.589844 258.253906 172.726562 C 259.304688 171.863281 260.3125 170.953125 261.273438 169.992188 C 262.234375 169.03125 263.148438 168.023438 264.007812 166.972656 C 264.871094 165.921875 265.679688 164.828125 266.4375 163.699219 C 267.191406 162.566406 267.890625 161.402344 268.53125 160.203125 C 269.171875 159.003906 269.753906 157.777344 270.273438 156.519531 C 270.792969 155.261719 271.253906 153.984375 271.648438 152.683594 C 272.042969 151.382812 272.371094 150.0625 272.636719 148.730469 C 272.902344 147.394531 273.101562 146.050781 273.234375 144.699219 C 273.367188 143.34375 273.433594 141.988281 273.433594 140.628906 C 273.433594 139.269531 273.363281 137.914062 273.230469 136.558594 C 273.09375 135.207031 272.894531 133.863281 272.625 132.53125 C 272.359375 131.199219 272.027344 129.882812 271.632812 128.582031 C 271.238281 127.28125 270.777344 126.003906 270.257812 124.746094 C 269.734375 123.492188 269.152344 122.265625 268.511719 121.066406 C 267.871094 119.867188 267.171875 118.703125 266.417969 117.574219 C 265.660156 116.445312 264.851562 115.355469 263.988281 114.304688 C 263.125 113.253906 262.214844 112.246094 261.253906 111.285156 C 260.292969 110.324219 259.285156 109.410156 258.234375 108.550781 C 257.183594 107.6875 256.09375 106.878906 254.964844 106.121094 C 253.835938 105.367188 252.671875 104.667969 251.472656 104.027344 C 250.273438 103.382812 249.046875 102.804688 247.789062 102.28125 C 246.535156 101.761719 245.257812 101.300781 243.957031 100.90625 C 242.65625 100.511719 241.339844 100.179688 240.007812 99.910156 C 238.671875 99.644531 237.332031 99.445312 235.976562 99.308594 C 234.625 99.175781 233.269531 99.105469 231.910156 99.101562 Z M 231.910156 99.101562 " fill-opacity="1" fill-rule="nonzero"/><path fill="#2b2b2b" d="M 140.539062 185.503906 C 139.117188 185.503906 137.703125 185.4375 136.289062 185.296875 C 134.875 185.15625 133.472656 184.949219 132.078125 184.671875 C 130.683594 184.394531 129.308594 184.050781 127.949219 183.636719 C 126.589844 183.226562 125.253906 182.746094 123.941406 182.203125 C 122.628906 181.660156 121.347656 181.054688 120.09375 180.382812 C 118.839844 179.714844 117.625 178.984375 116.441406 178.195312 C 115.261719 177.40625 114.121094 176.5625 113.023438 175.660156 C 111.925781 174.757812 110.875 173.804688 109.871094 172.800781 C 108.867188 171.796875 107.914062 170.746094 107.011719 169.648438 C 106.109375 168.550781 105.265625 167.410156 104.476562 166.226562 C 103.6875 165.046875 102.957031 163.832031 102.289062 162.578125 C 101.617188 161.324219 101.011719 160.042969 100.46875 158.730469 C 99.925781 157.417969 99.445312 156.082031 99.035156 154.722656 C 98.621094 153.363281 98.277344 151.984375 98 150.59375 C 97.722656 149.199219 97.515625 147.796875 97.375 146.382812 C 97.238281 144.96875 97.167969 143.550781 97.167969 142.132812 C 97.167969 140.710938 97.238281 139.292969 97.375 137.878906 C 97.515625 136.464844 97.722656 135.0625 98 133.667969 C 98.277344 132.277344 98.625 130.898438 99.035156 129.539062 C 99.449219 128.179688 99.925781 126.84375 100.46875 125.535156 C 101.015625 124.222656 101.621094 122.9375 102.289062 121.6875 C 102.960938 120.433594 103.691406 119.214844 104.480469 118.035156 C 105.269531 116.855469 106.113281 115.714844 107.015625 114.617188 C 107.914062 113.519531 108.867188 112.46875 109.875 111.460938 C 110.878906 110.457031 111.929688 109.503906 113.027344 108.605469 C 114.125 107.703125 115.265625 106.859375 116.445312 106.070312 C 117.628906 105.28125 118.84375 104.550781 120.097656 103.882812 C 121.351562 103.210938 122.632812 102.605469 123.945312 102.0625 C 125.257812 101.519531 126.59375 101.039062 127.953125 100.628906 C 129.3125 100.214844 130.6875 99.871094 132.082031 99.59375 C 133.476562 99.316406 134.878906 99.109375 136.292969 98.96875 C 137.707031 98.832031 139.125 98.761719 140.542969 98.761719 C 141.964844 98.761719 143.382812 98.832031 144.796875 98.972656 C 146.210938 99.109375 147.613281 99.320312 149.003906 99.597656 C 150.398438 99.875 151.773438 100.21875 153.132812 100.632812 C 154.492188 101.042969 155.828125 101.523438 157.140625 102.066406 C 158.453125 102.609375 159.738281 103.214844 160.988281 103.886719 C 162.242188 104.554688 163.460938 105.285156 164.640625 106.074219 C 165.820312 106.863281 166.960938 107.710938 168.058594 108.609375 C 169.15625 109.511719 170.207031 110.464844 171.210938 111.46875 C 172.214844 112.472656 173.167969 113.527344 174.070312 114.625 C 174.972656 115.722656 175.816406 116.863281 176.605469 118.042969 C 177.394531 119.222656 178.125 120.441406 178.792969 121.695312 C 179.460938 122.945312 180.070312 124.230469 180.613281 125.542969 C 181.15625 126.855469 181.632812 128.191406 182.046875 129.550781 C 182.457031 130.910156 182.800781 132.285156 183.078125 133.679688 C 183.355469 135.074219 183.5625 136.476562 183.703125 137.890625 C 183.84375 139.304688 183.910156 140.71875 183.910156 142.140625 C 183.910156 143.5625 183.839844 144.976562 183.699219 146.390625 C 183.558594 147.804688 183.347656 149.207031 183.070312 150.597656 C 182.789062 151.992188 182.445312 153.367188 182.03125 154.726562 C 181.617188 156.082031 181.140625 157.417969 180.59375 158.730469 C 180.050781 160.042969 179.445312 161.324219 178.773438 162.574219 C 178.105469 163.828125 177.375 165.042969 176.585938 166.222656 C 175.796875 167.402344 174.949219 168.542969 174.050781 169.640625 C 173.148438 170.738281 172.195312 171.789062 171.191406 172.792969 C 170.1875 173.796875 169.136719 174.75 168.039062 175.648438 C 166.941406 176.550781 165.804688 177.394531 164.621094 178.183594 C 163.441406 178.972656 162.226562 179.703125 160.972656 180.371094 C 159.722656 181.042969 158.441406 181.648438 157.128906 182.191406 C 155.816406 182.738281 154.480469 183.214844 153.125 183.628906 C 151.765625 184.042969 150.390625 184.386719 148.996094 184.664062 C 147.605469 184.941406 146.203125 185.152344 144.789062 185.292969 C 143.375 185.433594 141.960938 185.503906 140.539062 185.503906 Z M 140.539062 100.585938 C 139.179688 100.585938 137.824219 100.652344 136.46875 100.785156 C 135.117188 100.917969 133.773438 101.117188 132.4375 101.382812 C 131.105469 101.648438 129.785156 101.980469 128.484375 102.375 C 127.183594 102.769531 125.90625 103.226562 124.648438 103.746094 C 123.390625 104.265625 122.164062 104.847656 120.964844 105.488281 C 119.765625 106.128906 118.601562 106.828125 117.46875 107.585938 C 116.339844 108.339844 115.246094 109.148438 114.195312 110.011719 C 113.144531 110.875 112.136719 111.785156 111.175781 112.75 C 110.214844 113.710938 109.300781 114.71875 108.441406 115.769531 C 107.578125 116.820312 106.769531 117.910156 106.011719 119.042969 C 105.257812 120.171875 104.558594 121.335938 103.917969 122.535156 C 103.277344 123.734375 102.695312 124.964844 102.175781 126.21875 C 101.65625 127.476562 101.195312 128.757812 100.800781 130.058594 C 100.40625 131.359375 100.078125 132.675781 99.8125 134.011719 C 99.546875 135.34375 99.347656 136.6875 99.214844 138.042969 C 99.082031 139.394531 99.015625 140.75 99.015625 142.113281 C 99.015625 143.472656 99.082031 144.828125 99.214844 146.183594 C 99.347656 147.535156 99.546875 148.878906 99.8125 150.210938 C 100.078125 151.546875 100.40625 152.863281 100.800781 154.164062 C 101.195312 155.46875 101.65625 156.746094 102.175781 158.003906 C 102.695312 159.257812 103.277344 160.488281 103.917969 161.6875 C 104.558594 162.886719 105.257812 164.050781 106.011719 165.183594 C 106.769531 166.3125 107.578125 167.402344 108.441406 168.453125 C 109.300781 169.507812 110.214844 170.511719 111.175781 171.472656 C 112.136719 172.4375 113.144531 173.347656 114.195312 174.210938 C 115.246094 175.074219 116.339844 175.882812 117.46875 176.636719 C 118.601562 177.394531 119.765625 178.09375 120.964844 178.734375 C 122.164062 179.375 123.390625 179.957031 124.648438 180.476562 C 125.90625 180.996094 127.183594 181.453125 128.484375 181.847656 C 129.785156 182.242188 131.105469 182.574219 132.4375 182.839844 C 133.773438 183.105469 135.117188 183.304688 136.46875 183.4375 C 137.824219 183.570312 139.179688 183.636719 140.539062 183.636719 C 141.898438 183.636719 143.257812 183.570312 144.609375 183.4375 C 145.964844 183.304688 147.304688 183.105469 148.640625 182.839844 C 149.972656 182.574219 151.292969 182.242188 152.59375 181.847656 C 153.894531 181.453125 155.175781 180.996094 156.429688 180.476562 C 157.6875 179.957031 158.914062 179.375 160.113281 178.734375 C 161.3125 178.09375 162.480469 177.394531 163.609375 176.636719 C 164.742188 175.882812 165.832031 175.074219 166.882812 174.210938 C 167.933594 173.347656 168.941406 172.4375 169.902344 171.472656 C 170.863281 170.511719 171.777344 169.507812 172.640625 168.453125 C 173.5 167.402344 174.3125 166.3125 175.066406 165.183594 C 175.820312 164.050781 176.519531 162.886719 177.160156 161.6875 C 177.800781 160.488281 178.382812 159.257812 178.902344 158.003906 C 179.425781 156.746094 179.882812 155.46875 180.277344 154.164062 C 180.671875 152.863281 181 151.546875 181.265625 150.210938 C 181.53125 148.878906 181.730469 147.535156 181.863281 146.183594 C 181.996094 144.828125 182.066406 143.472656 182.066406 142.113281 C 182.0625 140.753906 181.992188 139.394531 181.859375 138.042969 C 181.722656 136.691406 181.519531 135.347656 181.253906 134.015625 C 180.988281 132.683594 180.65625 131.367188 180.261719 130.066406 C 179.863281 128.765625 179.40625 127.488281 178.882812 126.230469 C 178.363281 124.976562 177.78125 123.75 177.140625 122.550781 C 176.496094 121.351562 175.800781 120.1875 175.042969 119.058594 C 174.289062 117.929688 173.480469 116.839844 172.617188 115.789062 C 171.753906 114.738281 170.839844 113.730469 169.878906 112.769531 C 168.917969 111.808594 167.914062 110.898438 166.863281 110.035156 C 165.8125 109.171875 164.722656 108.363281 163.59375 107.605469 C 162.460938 106.851562 161.296875 106.152344 160.097656 105.511719 C 158.902344 104.871094 157.675781 104.289062 156.417969 103.765625 C 155.164062 103.246094 153.886719 102.785156 152.585938 102.390625 C 151.285156 101.996094 149.96875 101.664062 148.636719 101.394531 C 147.300781 101.128906 145.960938 100.929688 144.605469 100.792969 C 143.253906 100.65625 141.898438 100.589844 140.539062 100.585938 Z M 140.539062 100.585938 " fill-opacity="1" fill-rule="nonzero"/><path fill="#f0f0f0" d="M 85.835938 181.339844 L 91.363281 172.542969 C 91.589844 172.179688 91.871094 171.863281 92.203125 171.589844 C 92.535156 171.316406 92.898438 171.101562 93.300781 170.949219 C 93.703125 170.792969 94.117188 170.707031 94.546875 170.6875 C 94.976562 170.667969 95.398438 170.714844 95.808594 170.832031 C 100.480469 172.164062 111.078125 174.449219 128.296875 174.257812 C 149.882812 174.011719 174.5 191.542969 182.792969 202.433594 C 182.941406 202.628906 183.113281 202.808594 183.300781 202.964844 C 183.488281 203.125 183.691406 203.261719 183.910156 203.378906 C 184.128906 203.492188 184.355469 203.582031 184.59375 203.648438 C 184.832031 203.714844 185.074219 203.753906 185.320312 203.769531 C 185.570312 203.78125 185.8125 203.769531 186.058594 203.726562 C 186.300781 203.6875 186.539062 203.625 186.765625 203.53125 C 186.996094 203.441406 187.214844 203.328125 187.417969 203.191406 C 187.625 203.050781 187.8125 202.894531 187.980469 202.714844 C 194.457031 195.910156 210.753906 180.542969 229.796875 176.148438 C 252.554688 170.898438 265.632812 175.554688 278.589844 172.5 C 279.058594 172.390625 279.53125 172.363281 280.007812 172.425781 C 280.484375 172.488281 280.9375 172.632812 281.363281 172.859375 C 281.789062 173.085938 282.160156 173.378906 282.476562 173.742188 C 282.792969 174.105469 283.039062 174.511719 283.207031 174.960938 L 286.53125 183.75 L 247.183594 225.828125 C 247.183594 225.828125 190.175781 237.769531 185.832031 238.042969 C 181.484375 238.316406 142.675781 236.683594 138.054688 232.066406 C 133.433594 227.445312 85.835938 181.339844 85.835938 181.339844 Z M 85.835938 181.339844 " fill-opacity="1" fill-rule="nonzero"/><g clip-path="url(#bd24454496)"><path fill="#2b2b2b" d="M 77.464844 178.371094 L 173.300781 212.554688 C 173.625 212.671875 173.925781 212.835938 174.199219 213.042969 C 174.476562 213.25 174.714844 213.496094 174.914062 213.777344 C 175.113281 214.0625 175.261719 214.367188 175.367188 214.695312 C 175.472656 215.023438 175.523438 215.363281 175.523438 215.707031 L 175.523438 215.96875 C 175.523438 216.410156 175.609375 216.839844 175.78125 217.25 C 175.949219 217.660156 176.191406 218.023438 176.507812 218.335938 C 176.820312 218.652344 177.183594 218.894531 177.59375 219.0625 C 178.003906 219.234375 178.429688 219.320312 178.875 219.320312 L 191.480469 219.320312 C 191.925781 219.320312 192.351562 219.234375 192.761719 219.0625 C 193.171875 218.894531 193.535156 218.652344 193.847656 218.335938 C 194.164062 218.023438 194.40625 217.660156 194.574219 217.25 C 194.742188 216.839844 194.828125 216.410156 194.828125 215.96875 L 194.828125 215.515625 C 194.828125 215.160156 194.882812 214.8125 194.992188 214.476562 C 195.101562 214.140625 195.261719 213.828125 195.472656 213.542969 C 195.679688 213.253906 195.929688 213.007812 196.214844 212.800781 C 196.503906 212.59375 196.816406 212.433594 197.15625 212.328125 L 294.390625 181.078125 C 294.738281 180.96875 295.09375 180.898438 295.460938 180.871094 C 295.824219 180.839844 296.1875 180.855469 296.546875 180.914062 C 296.90625 180.972656 297.257812 181.070312 297.59375 181.210938 C 297.933594 181.347656 298.25 181.523438 298.546875 181.738281 C 298.84375 181.953125 299.109375 182.199219 299.347656 182.476562 C 299.585938 182.753906 299.789062 183.050781 299.957031 183.378906 C 300.125 183.703125 300.253906 184.042969 300.339844 184.394531 C 300.429688 184.75 300.476562 185.109375 300.480469 185.476562 L 301.480469 307.523438 C 301.484375 308.058594 301.398438 308.582031 301.226562 309.085938 C 301.050781 309.59375 300.796875 310.054688 300.460938 310.476562 C 300.128906 310.894531 299.734375 311.246094 299.277344 311.527344 C 298.824219 311.808594 298.332031 312.007812 297.808594 312.121094 C 283.90625 315.085938 234 326.734375 202.21875 345.042969 C 201.527344 345.445312 200.980469 345.992188 200.585938 346.683594 C 200.1875 347.378906 199.988281 348.125 199.996094 348.921875 L 199.996094 349.339844 C 199.996094 349.605469 199.96875 349.871094 199.917969 350.132812 C 199.863281 350.394531 199.785156 350.652344 199.683594 350.898438 C 199.582031 351.144531 199.457031 351.382812 199.308594 351.605469 C 199.160156 351.828125 198.988281 352.03125 198.800781 352.222656 C 198.609375 352.410156 198.40625 352.582031 198.183594 352.730469 C 197.960938 352.878906 197.722656 353.003906 197.476562 353.105469 C 197.230469 353.207031 196.972656 353.285156 196.710938 353.339844 C 196.449219 353.390625 196.183594 353.417969 195.917969 353.417969 L 176.71875 353.417969 C 176.191406 353.417969 175.683594 353.320312 175.195312 353.121094 C 174.707031 352.925781 174.273438 352.648438 173.894531 352.28125 C 173.511719 351.917969 173.214844 351.496094 172.996094 351.015625 C 172.78125 350.539062 172.660156 350.035156 172.640625 349.507812 C 172.609375 348.699219 172.375 347.949219 171.9375 347.269531 C 171.5 346.585938 170.917969 346.0625 170.191406 345.695312 C 159.070312 340.0625 110.730469 316.355469 74.601562 312.023438 C 74.035156 311.957031 73.5 311.792969 72.996094 311.527344 C 72.488281 311.265625 72.046875 310.921875 71.667969 310.492188 C 71.289062 310.066406 71 309.585938 70.796875 309.054688 C 70.59375 308.519531 70.492188 307.96875 70.496094 307.398438 L 71.238281 182.746094 C 71.234375 182.375 71.28125 182.003906 71.367188 181.644531 C 71.457031 181.28125 71.585938 180.933594 71.757812 180.601562 C 71.933594 180.269531 72.140625 179.964844 72.386719 179.683594 C 72.632812 179.402344 72.90625 179.15625 73.214844 178.941406 C 73.519531 178.726562 73.84375 178.550781 74.191406 178.414062 C 74.539062 178.277344 74.898438 178.1875 75.269531 178.136719 C 75.640625 178.085938 76.011719 178.082031 76.382812 178.121094 C 76.753906 178.160156 77.113281 178.246094 77.464844 178.371094 Z M 77.464844 178.371094 " fill-opacity="1" fill-rule="nonzero"/></g><path fill="#f0f0f0" d="M 293.191406 214.113281 C 293.039062 214.113281 292.898438 214.085938 292.757812 214.027344 C 292.621094 213.972656 292.5 213.890625 292.390625 213.785156 C 292.285156 213.683594 292.203125 213.5625 292.144531 213.421875 C 292.085938 213.285156 292.058594 213.144531 292.054688 212.992188 L 291.789062 192.632812 L 270.476562 199.640625 C 270.332031 199.6875 270.1875 199.703125 270.035156 199.691406 C 269.886719 199.679688 269.742188 199.640625 269.609375 199.574219 C 269.476562 199.503906 269.359375 199.414062 269.261719 199.300781 C 269.164062 199.183594 269.089844 199.054688 269.042969 198.914062 C 268.996094 198.769531 268.980469 198.621094 268.992188 198.472656 C 269.003906 198.324219 269.042969 198.179688 269.109375 198.046875 C 269.179688 197.910156 269.269531 197.796875 269.386719 197.699219 C 269.5 197.601562 269.628906 197.527344 269.773438 197.480469 L 291.691406 190.238281 C 291.824219 190.191406 291.964844 190.164062 292.105469 190.152344 C 292.246094 190.140625 292.386719 190.144531 292.523438 190.167969 C 292.664062 190.1875 292.800781 190.222656 292.929688 190.277344 C 293.0625 190.332031 293.183594 190.398438 293.300781 190.480469 C 293.414062 190.5625 293.519531 190.65625 293.613281 190.761719 C 293.707031 190.867188 293.785156 190.984375 293.851562 191.109375 C 293.917969 191.234375 293.964844 191.367188 294 191.503906 C 294.035156 191.640625 294.054688 191.777344 294.058594 191.917969 L 294.332031 212.933594 C 294.332031 213.085938 294.304688 213.230469 294.25 213.371094 C 294.195312 213.507812 294.113281 213.632812 294.007812 213.742188 C 293.90625 213.847656 293.78125 213.933594 293.644531 213.992188 C 293.507812 214.050781 293.363281 214.082031 293.210938 214.082031 Z M 293.191406 214.113281 " fill-opacity="1" fill-rule="nonzero"/><path fill="#f0f0f0" d="M 294.101562 269.378906 C 293.953125 269.378906 293.808594 269.351562 293.671875 269.292969 C 293.53125 269.238281 293.410156 269.15625 293.304688 269.050781 C 293.199219 268.949219 293.117188 268.828125 293.058594 268.6875 C 293 268.550781 292.96875 268.410156 292.96875 268.257812 L 292.054688 220.058594 C 292.039062 219.902344 292.054688 219.746094 292.105469 219.597656 C 292.15625 219.445312 292.230469 219.308594 292.339844 219.191406 C 292.445312 219.070312 292.570312 218.980469 292.714844 218.910156 C 292.859375 218.84375 293.011719 218.8125 293.167969 218.808594 C 293.328125 218.804688 293.480469 218.832031 293.628906 218.894531 C 293.777344 218.953125 293.902344 219.042969 294.015625 219.15625 C 294.125 219.273438 294.207031 219.40625 294.261719 219.554688 C 294.316406 219.703125 294.339844 219.855469 294.332031 220.015625 L 295.234375 268.214844 C 295.238281 268.367188 295.214844 268.511719 295.160156 268.652344 C 295.101562 268.792969 295.023438 268.914062 294.917969 269.023438 C 294.816406 269.132812 294.695312 269.214844 294.554688 269.277344 C 294.417969 269.335938 294.273438 269.367188 294.125 269.371094 Z M 294.101562 269.378906 " fill-opacity="1" fill-rule="nonzero"/><path fill="#f0f0f0" d="M 292.738281 273.289062 C 292.746094 273.089844 292.792969 272.902344 292.878906 272.726562 C 292.964844 272.546875 293.078125 272.394531 293.226562 272.261719 C 293.371094 272.128906 293.539062 272.03125 293.722656 271.964844 C 293.90625 271.898438 294.097656 271.871094 294.296875 271.882812 C 294.492188 271.894531 294.679688 271.941406 294.855469 272.023438 C 295.035156 272.109375 295.1875 272.226562 295.320312 272.371094 C 295.453125 272.519531 295.550781 272.683594 295.617188 272.867188 C 295.683594 273.054688 295.710938 273.246094 295.699219 273.441406 C 295.6875 273.636719 295.640625 273.824219 295.554688 274.003906 C 295.472656 274.179688 295.355469 274.335938 295.210938 274.464844 C 295.0625 274.597656 294.898438 274.695312 294.710938 274.761719 C 294.527344 274.828125 294.335938 274.855469 294.136719 274.84375 C 293.941406 274.832031 293.757812 274.785156 293.578125 274.703125 C 293.402344 274.617188 293.246094 274.5 293.117188 274.355469 C 292.984375 274.210938 292.886719 274.042969 292.820312 273.859375 C 292.753906 273.675781 292.726562 273.484375 292.738281 273.289062 Z M 292.738281 273.289062 " fill-opacity="1" fill-rule="nonzero"/><path fill="#f0f0f0" d="M 292.738281 278.285156 C 292.746094 278.089844 292.792969 277.902344 292.875 277.722656 C 292.960938 277.542969 293.074219 277.390625 293.222656 277.257812 C 293.367188 277.125 293.53125 277.023438 293.71875 276.957031 C 293.902344 276.890625 294.09375 276.863281 294.292969 276.871094 C 294.488281 276.882812 294.675781 276.929688 294.851562 277.011719 C 295.03125 277.097656 295.1875 277.214844 295.320312 277.359375 C 295.449219 277.503906 295.550781 277.671875 295.617188 277.855469 C 295.683594 278.042969 295.710938 278.234375 295.699219 278.429688 C 295.691406 278.625 295.640625 278.8125 295.558594 278.992188 C 295.472656 279.167969 295.355469 279.324219 295.210938 279.457031 C 295.0625 279.589844 294.898438 279.6875 294.710938 279.753906 C 294.527344 279.816406 294.335938 279.84375 294.136719 279.835938 C 293.941406 279.824219 293.757812 279.777344 293.582031 279.691406 C 293.402344 279.609375 293.25 279.492188 293.117188 279.347656 C 292.988281 279.203125 292.890625 279.039062 292.824219 278.855469 C 292.757812 278.671875 292.726562 278.480469 292.738281 278.285156 Z M 292.738281 278.285156 " fill-opacity="1" fill-rule="nonzero"/><g fill="#ffffff" fill-opacity="1"><g transform="translate(0.863476, 339.278882)"><g><path d="M 106.101562 -85.449219 C 110.824219 -85.449219 114.601562 -89.226562 114.601562 -93.945312 C 114.601562 -98.667969 110.707031 -102.324219 106.101562 -102.324219 C 101.382812 -102.324219 97.722656 -98.667969 97.722656 -93.945312 C 97.722656 -89.226562 101.382812 -85.449219 106.101562 -85.449219 Z M 97.488281 -67.035156 C 102.207031 -67.035156 105.984375 -70.8125 105.984375 -75.535156 C 105.984375 -80.253906 102.089844 -83.914062 97.488281 -83.914062 C 92.765625 -83.914062 89.105469 -80.253906 89.105469 -75.535156 C 89.105469 -70.8125 92.765625 -67.035156 97.488281 -67.035156 Z M 114.363281 -67.035156 C 119.085938 -67.035156 122.863281 -70.8125 122.863281 -75.535156 C 122.863281 -80.253906 118.964844 -83.914062 114.363281 -83.914062 C 109.644531 -83.914062 105.984375 -80.253906 105.984375 -75.535156 C 105.984375 -70.8125 109.644531 -67.035156 114.363281 -67.035156 Z M 129.941406 -14.398438 L 129.941406 -58.066406 C 121.445312 -56.53125 115.425781 -60.308594 106.101562 -60.308594 C 89.933594 -60.308594 75.769531 -48.742188 75.769531 -29.503906 C 75.769531 -23.722656 77.070312 -18.648438 79.3125 -14.398438 L 30.097656 -14.398438 C 28.796875 -10.269531 24.3125 -6.609375 20.183594 -6.609375 C 16.40625 -6.609375 14.636719 -8.734375 14.636719 -11.210938 C 14.636719 -14.398438 17.46875 -15.34375 19.589844 -14.636719 C 21.125 -15.578125 22.1875 -17.703125 22.1875 -20.183594 C 22.1875 -24.667969 18.765625 -27.734375 14.753906 -27.734375 C 2.476562 -27.734375 0.589844 0 24.902344 0 L 137.023438 0 L 137.023438 -14.398438 Z M 108.226562 -14.398438 C 99.257812 -14.398438 92.648438 -20.652344 92.648438 -30.097656 C 92.648438 -39.539062 99.257812 -45.203125 107.28125 -45.203125 C 109.644531 -45.203125 111.765625 -44.730469 114.011719 -44.140625 L 114.011719 -14.398438 Z M 108.226562 -14.398438 "/></g></g></g><g fill="#ffffff" fill-opacity="1"><g transform="translate(136.689544, 339.278882)"><g><path d="M 26.554688 0 L 26.554688 -59.011719 L 10.621094 -59.011719 L 10.621094 -14.398438 L -1.179688 -14.398438 L -1.179688 0 Z M 10.148438 8.144531 C 5.429688 8.144531 1.769531 11.921875 1.769531 16.640625 C 1.769531 21.363281 5.429688 25.019531 10.148438 25.019531 C 14.753906 25.019531 18.648438 21.363281 18.648438 16.640625 C 18.648438 11.921875 14.871094 8.144531 10.148438 8.144531 Z M 27.027344 8.144531 C 22.304688 8.144531 18.648438 11.921875 18.648438 16.640625 C 18.648438 21.363281 22.304688 25.019531 27.027344 25.019531 C 31.628906 25.019531 35.523438 21.363281 35.523438 16.640625 C 35.523438 11.921875 31.75 8.144531 27.027344 8.144531 Z M 27.027344 8.144531 "/></g></g></g><g fill="#ffffff" fill-opacity="1"><g transform="translate(169.141468, 339.278882)"><g><path d="M 5.902344 0 L 68.21875 0 L 68.21875 -21.480469 C 68.21875 -29.503906 68.21875 -33.519531 65.976562 -44.847656 C 65.855469 -46.027344 65.03125 -46.855469 63.96875 -46.972656 L 14.164062 -53.9375 L 13.808594 -52.519531 L 15.226562 -38.949219 L 16.050781 -37.648438 L 52.285156 -34.226562 L 52.285156 -14.515625 L 5.902344 -14.515625 Z M 5.902344 0 "/></g></g></g><g fill="#ffffff" fill-opacity="1"><g transform="translate(243.249877, 339.278882)"><g/></g></g><g fill="#ffffff" fill-opacity="1"><g transform="translate(260.950928, 339.278882)"><g><path d="M 74.828125 -14.398438 L 74.828125 -82.617188 L 58.894531 -82.617188 L 58.894531 -14.398438 L 24.902344 -14.398438 C 0.589844 -14.398438 2.476562 13.335938 14.753906 13.335938 C 18.765625 13.335938 22.1875 10.269531 22.1875 5.78125 C 22.1875 3.304688 21.125 1.179688 19.589844 0.234375 C 17.46875 0.945312 14.636719 0 14.636719 -3.1875 C 14.636719 -5.664062 16.40625 -7.789062 20.183594 -7.789062 C 24.3125 -7.789062 25.375 0 36.113281 0 L 81.90625 0 L 81.90625 -14.398438 Z M 36.824219 -21.714844 C 51.222656 -21.714844 51.222656 -37.53125 44.613281 -37.53125 C 42.132812 -37.53125 40.953125 -36.46875 40.007812 -34.933594 C 42.015625 -28.796875 31.984375 -27.617188 31.984375 -35.523438 C 31.984375 -39.300781 35.050781 -42.960938 40.007812 -42.960938 L 41.308594 -44.496094 L 41.308594 -82.617188 L 25.375 -82.617188 L 25.375 -31.984375 C 25.375 -26.554688 31.039062 -21.714844 36.824219 -21.714844 Z M 36.824219 -21.714844 "/></g></g></g><g fill="#ffffff" fill-opacity="1"><g transform="translate(341.667724, 339.278882)"><g><path d="M 26.554688 0 L 26.554688 -59.011719 L 10.621094 -59.011719 L 10.621094 -14.398438 L -1.179688 -14.398438 L -1.179688 0 Z M 10.148438 8.144531 C 5.429688 8.144531 1.769531 11.921875 1.769531 16.640625 C 1.769531 21.363281 5.429688 25.019531 10.148438 25.019531 C 14.753906 25.019531 18.648438 21.363281 18.648438 16.640625 C 18.648438 11.921875 14.871094 8.144531 10.148438 8.144531 Z M 27.027344 8.144531 C 22.304688 8.144531 18.648438 11.921875 18.648438 16.640625 C 18.648438 21.363281 22.304688 25.019531 27.027344 25.019531 C 31.628906 25.019531 35.523438 21.363281 35.523438 16.640625 C 35.523438 11.921875 31.75 8.144531 27.027344 8.144531 Z M 27.027344 8.144531 "/></g></g></g><g fill="#ffffff" fill-opacity="1"><g transform="translate(0.846678, 368.95143)"><g><path d="M 20.054688 0.753906 L 20.054688 -0.929688 C 18.25 1.203125 15.085938 2.609375 11.773438 2.609375 C 6.324219 2.609375 2.257812 -1.203125 2.257812 -6.578125 C 2.257812 -11.847656 6.199219 -15.664062 11.394531 -15.664062 C 15.914062 -15.664062 19.402344 -12.726562 19.402344 -8.257812 C 19.402344 -5.269531 17.871094 -3.765625 16.867188 -3.765625 C 16.390625 -3.765625 16.039062 -4.089844 16.039062 -4.769531 L 16.039062 -11.597656 L 13.328125 -11.597656 L 13.328125 -10.515625 C 12.675781 -11.246094 11.671875 -11.824219 10.265625 -11.824219 C 7.40625 -11.824219 5.171875 -9.4375 5.171875 -6.578125 C 5.171875 -3.714844 7.40625 -1.332031 10.292969 -1.332031 C 11.671875 -1.332031 12.953125 -1.859375 13.707031 -2.710938 C 14.132812 -1.933594 14.933594 -1.554688 15.8125 -1.554688 C 17.949219 -1.554688 20.660156 -3.789062 20.660156 -8.132812 C 20.660156 -13.429688 16.617188 -16.917969 11.371094 -16.917969 C 5.523438 -16.917969 0.953125 -12.574219 0.953125 -6.578125 C 0.953125 -0.476562 5.671875 3.867188 11.746094 3.867188 C 15.035156 3.867188 18.074219 2.585938 20.054688 0.753906 Z M 13.328125 -6.578125 C 13.328125 -5.121094 12.148438 -3.914062 10.691406 -3.914062 C 9.238281 -3.914062 8.03125 -5.121094 8.03125 -6.578125 C 8.03125 -8.03125 9.238281 -9.238281 10.691406 -9.238281 C 12.148438 -9.238281 13.328125 -8.03125 13.328125 -6.578125 Z M 13.328125 -6.578125 "/></g></g></g><g fill="#ffffff" fill-opacity="1"><g transform="translate(22.559596, 368.95143)"><g><path d="M -0.101562 -12.550781 L 6.449219 0 C 5.371094 2.183594 4.542969 2.835938 3.839844 2.835938 C 2.988281 2.835938 2.761719 1.90625 3.289062 1.457031 C 3.085938 1.179688 2.6875 1.003906 2.207031 1.003906 C 1.15625 1.003906 0.402344 1.832031 0.402344 2.835938 C 0.402344 3.691406 0.953125 4.96875 2.8125 4.96875 C 5.347656 4.96875 6.074219 2.609375 7.304688 0.277344 L 14.007812 -12.550781 L 10.242188 -12.550781 L 6.953125 -6.199219 L 3.664062 -12.550781 Z M -0.101562 -12.550781 "/></g></g></g><g fill="#ffffff" fill-opacity="1"><g transform="translate(36.3153, 368.95143)"><g><path d="M 1.65625 -12.550781 L 1.65625 -9.488281 L 9.035156 -9.488281 L 9.035156 -6.828125 C 8.257812 -7.105469 7.027344 -7.378906 5.671875 -7.378906 C 4.746094 -7.378906 3.515625 -7.253906 2.484375 -6.675781 C 1.304688 -6 0.703125 -4.84375 0.703125 -3.5625 C 0.703125 -1.429688 2.410156 0.277344 5.296875 0.277344 C 6.953125 0.277344 8.15625 -0.277344 9.035156 -1.203125 L 9.035156 0 L 12.425781 0 L 12.425781 -12.550781 Z M 6.425781 -4.996094 C 7.632812 -4.996094 8.636719 -4.695312 9.035156 -4.570312 L 9.035156 -4.542969 C 8.507812 -3.390625 7.328125 -2.660156 6.023438 -2.660156 C 5.195312 -2.660156 4.242188 -2.9375 4.242188 -3.789062 C 4.242188 -4.667969 5.195312 -4.996094 6.425781 -4.996094 Z M 6.425781 -4.996094 "/></g></g></g><g fill="#ffffff" fill-opacity="1"><g transform="translate(50.071004, 368.95143)"><g><path d="M 1.332031 0 L 4.71875 0 L 4.71875 -17.570312 L 1.332031 -17.570312 Z M 1.332031 0 "/></g></g></g><g fill="#ffffff" fill-opacity="1"><g transform="translate(56.120491, 368.95143)"><g><path d="M 1.332031 0 L 4.71875 0 L 4.71875 -17.570312 L 1.332031 -17.570312 Z M 1.332031 0 "/></g></g></g><g fill="#ffffff" fill-opacity="1"><g transform="translate(62.169979, 368.95143)"><g><path d="M 1.65625 -12.550781 L 1.65625 -9.488281 L 9.035156 -9.488281 L 9.035156 -6.828125 C 8.257812 -7.105469 7.027344 -7.378906 5.671875 -7.378906 C 4.746094 -7.378906 3.515625 -7.253906 2.484375 -6.675781 C 1.304688 -6 0.703125 -4.84375 0.703125 -3.5625 C 0.703125 -1.429688 2.410156 0.277344 5.296875 0.277344 C 6.953125 0.277344 8.15625 -0.277344 9.035156 -1.203125 L 9.035156 0 L 12.425781 0 L 12.425781 -12.550781 Z M 6.425781 -4.996094 C 7.632812 -4.996094 8.636719 -4.695312 9.035156 -4.570312 L 9.035156 -4.542969 C 8.507812 -3.390625 7.328125 -2.660156 6.023438 -2.660156 C 5.195312 -2.660156 4.242188 -2.9375 4.242188 -3.789062 C 4.242188 -4.667969 5.195312 -4.996094 6.425781 -4.996094 Z M 6.425781 -4.996094 "/></g></g></g><g fill="#ffffff" fill-opacity="1"><g transform="translate(75.925683, 368.95143)"><g><path d="M 10.84375 0 L 14.234375 0 L 14.234375 -17.570312 L 10.84375 -17.570312 L 10.84375 -11.195312 C 10.039062 -12.125 8.785156 -12.828125 7.054688 -12.828125 C 3.4375 -12.828125 0.652344 -9.863281 0.652344 -6.277344 C 0.652344 -2.6875 3.4375 0.277344 7.054688 0.277344 C 8.785156 0.277344 10.039062 -0.425781 10.84375 -1.355469 Z M 10.84375 -6.277344 C 10.84375 -4.46875 9.363281 -2.960938 7.53125 -2.960938 C 5.722656 -2.960938 4.242188 -4.46875 4.242188 -6.277344 C 4.242188 -8.109375 5.722656 -9.589844 7.53125 -9.589844 C 9.363281 -9.589844 10.84375 -8.109375 10.84375 -6.277344 Z M 10.84375 -6.277344 "/></g></g></g><g fill="#ffffff" fill-opacity="1"><g transform="translate(91.48869, 368.95143)"><g><path d="M 7.53125 -5.546875 C 8.234375 -5.546875 9.816406 -5.597656 10.84375 -6.148438 C 11.796875 -6.652344 12.476562 -7.707031 12.476562 -8.988281 C 12.476562 -11.042969 10.691406 -12.828125 7.457031 -12.828125 C 3.363281 -12.828125 0.679688 -10.015625 0.679688 -6.175781 C 0.679688 -2.558594 3.136719 0.277344 7.632812 0.277344 C 9.664062 0.277344 11.347656 -0.351562 12.425781 -1.179688 L 12.425781 -4.871094 C 11.523438 -3.941406 10.066406 -2.910156 7.980469 -2.910156 C 5.699219 -2.910156 4.292969 -4.015625 4.21875 -5.949219 C 4.945312 -5.722656 6.25 -5.546875 7.53125 -5.546875 Z M 6.726562 -7.933594 C 5.699219 -7.933594 4.96875 -8.03125 4.542969 -8.132812 C 5.019531 -9.335938 6.023438 -9.890625 7.304688 -9.890625 C 8.15625 -9.890625 8.9375 -9.640625 8.9375 -8.886719 C 8.9375 -8.109375 8.109375 -7.933594 6.726562 -7.933594 Z M 6.726562 -7.933594 "/></g></g></g><g fill="#ffffff" fill-opacity="1"><g transform="translate(104.918061, 368.95143)"><g><path d="M 6.449219 0.277344 L 7.152344 0.277344 L 13.855469 -12.550781 L 10.089844 -12.550781 L 6.800781 -6.199219 L 3.515625 -12.550781 L -0.25 -12.550781 Z M 6.449219 0.277344 "/></g></g></g></svg>